<svg width="50" height="50" viewBox="0 0 50 50" fill="none" xmlns="http://www.w3.org/2000/svg" xmlns:xlink="http://www.w3.org/1999/xlink">
<path d="M25.392,23.224C25.7,22.455 25.326,21.582 24.557,21.275C23.788,20.967 22.915,21.341 22.607,22.11L25.392,23.224ZM13.274,45.444C12.966,46.213 13.34,47.086 14.109,47.394C14.878,47.701 15.751,47.327 16.059,46.558L13.274,45.444ZM19.88,34.298C19.123,33.962 18.237,34.303 17.901,35.061C17.565,35.818 17.907,36.704 18.664,37.04L19.88,34.298ZM12.597,31.584C13.011,32.301 13.928,32.547 14.646,32.133C15.364,31.719 15.61,30.802 15.196,30.084L12.597,31.584ZM22.607,22.11L13.274,45.444L16.059,46.558L25.392,23.224L22.607,22.11ZM18.664,37.04C21.529,38.31 24.753,38.517 27.757,37.623L26.902,34.748C24.582,35.438 22.093,35.279 19.88,34.298L18.664,37.04ZM27.757,37.623C30.761,36.729 33.348,34.793 35.052,32.163L32.534,30.532C31.218,32.563 29.221,34.058 26.902,34.748L27.757,37.623ZM35.052,32.163C36.756,29.533 37.466,26.381 37.054,23.274L34.08,23.668C34.398,26.067 33.85,28.501 32.534,30.532L35.052,32.163ZM37.054,23.274C36.643,20.167 35.136,17.309 32.806,15.213L30.8,17.444C32.599,19.062 33.762,21.269 34.08,23.668L37.054,23.274ZM32.806,15.213C30.476,13.118 27.474,11.922 24.341,11.841L24.264,14.84C26.683,14.903 29.001,15.826 30.8,17.444L32.806,15.213ZM24.341,11.841C21.208,11.76 18.149,12.8 15.714,14.772L17.602,17.104C19.483,15.58 21.845,14.778 24.264,14.84L24.341,11.841ZM15.714,14.772C13.279,16.745 11.627,19.522 11.056,22.603L14.005,23.15C14.446,20.771 15.722,18.627 17.602,17.104L15.714,14.772ZM11.056,22.603C10.484,25.685 11.031,28.869 12.597,31.584L15.196,30.084C13.986,27.988 13.564,25.53 14.005,23.15L11.056,22.603Z" fill="#009688"/>
<path d="M45.833,25C45.833,37.059 36.058,46.834 24,46.834L24,49.834C37.715,49.834 48.833,38.715 48.833,25L45.833,25ZM24,46.834C11.942,46.834 2.167,37.059 2.167,25L-0.833,25C-0.833,38.715 10.285,49.834 24,49.834L24,46.834ZM2.167,25C2.167,12.942 11.942,3.167 24,3.167L24,0.167C10.285,0.167 -0.833,11.285 -0.833,25L2.167,25ZM24,3.167C36.058,3.167 45.833,12.942 45.833,25L48.833,25C48.833,11.285 37.715,0.167 24,0.167L24,3.167Z" fill="#009688"/>
</svg>
