<svg width="46" height="46" viewBox="0 0 46 46" fill="none" xmlns="http://www.w3.org/2000/svg" xmlns:xlink="http://www.w3.org/1999/xlink">
<path d="M22,32.333L22,33.833L22,32.333ZM31.333,22.999L32.833,22.999L31.333,22.999ZM22,13.666L22,12.166L22,13.666ZM12.667,22.999L11.167,22.999L12.667,22.999ZM22,33.833C24.873,33.833 27.629,32.691 29.66,30.66L27.539,28.538C26.07,30.007 24.078,30.833 22,30.833L22,33.833ZM29.66,30.66C31.692,28.628 32.833,25.873 32.833,22.999L29.833,22.999C29.833,25.077 29.008,27.069 27.539,28.538L29.66,30.66ZM32.833,22.999C32.833,20.126 31.692,17.371 29.66,15.339L27.539,17.46C29.008,18.929 29.833,20.922 29.833,22.999L32.833,22.999ZM29.66,15.339C27.629,13.307 24.873,12.166 22,12.166L22,15.166C24.078,15.166 26.07,15.991 27.539,17.46L29.66,15.339ZM22,12.166C19.127,12.166 16.371,13.307 14.34,15.339L16.461,17.46C17.93,15.991 19.922,15.166 22,15.166L22,12.166ZM14.34,15.339C12.308,17.371 11.167,20.126 11.167,22.999L14.167,22.999C14.167,20.922 14.992,18.929 16.461,17.46L14.34,15.339ZM11.167,22.999C11.167,25.873 12.308,28.628 14.34,30.66L16.461,28.538C14.992,27.069 14.167,25.077 14.167,22.999L11.167,22.999ZM14.34,30.66C16.371,32.691 19.127,33.833 22,33.833L22,30.833C19.922,30.833 17.93,30.007 16.461,28.538L14.34,30.66Z" fill="#009688"/>
<path d="M12.667,2L12.667,0.5L12.667,2ZM2.5,32.333L2.5,13.667L-0.5,13.667L-0.5,32.333L2.5,32.333ZM2.5,13.667C2.5,10.97 3.571,8.384 5.478,6.478L3.356,4.356C0.887,6.826 -0.5,10.175 -0.5,13.667L2.5,13.667ZM5.478,6.478C7.384,4.571 9.97,3.5 12.667,3.5L12.667,0.5C9.175,0.5 5.826,1.887 3.356,4.356L5.478,6.478ZM12.667,3.5L31.333,3.5L31.333,0.5L12.667,0.5L12.667,3.5ZM31.333,3.5C34.03,3.5 36.616,4.571 38.522,6.478L40.644,4.356C38.174,1.887 34.825,0.5 31.333,0.5L31.333,3.5ZM38.522,6.478C40.429,8.384 41.5,10.97 41.5,13.667L44.5,13.667C44.5,10.175 43.113,6.826 40.644,4.356L38.522,6.478ZM41.5,13.667L41.5,32.333L44.5,32.333L44.5,13.667L41.5,13.667ZM41.5,32.333C41.5,35.03 40.429,37.616 38.522,39.522L40.644,41.644C43.113,39.174 44.5,35.825 44.5,32.333L41.5,32.333ZM38.522,39.522C36.616,41.429 34.03,42.5 31.333,42.5L31.333,45.5C34.825,45.5 38.174,44.113 40.644,41.644L38.522,39.522ZM31.333,42.5L12.667,42.5L12.667,45.5L31.333,45.5L31.333,42.5ZM12.667,42.5C9.97,42.5 7.384,41.429 5.478,39.522L3.356,41.644C5.826,44.113 9.175,45.5 12.667,45.5L12.667,42.5ZM5.478,39.522C3.571,37.616 2.5,35.03 2.5,32.333L-0.5,32.333C-0.5,35.825 0.887,39.174 3.356,41.644L5.478,39.522Z" fill="#009688"/>
</svg>
