<svg width="50" height="50" viewBox="0 0 50 50" fill="none" xmlns="http://www.w3.org/2000/svg" xmlns:xlink="http://www.w3.org/1999/xlink">
<path d="M25.393,23.223C25.7,22.454 25.326,21.581 24.557,21.274C23.788,20.966 22.915,21.34 22.607,22.109L25.393,23.223ZM13.274,45.443C12.966,46.212 13.34,47.085 14.11,47.393C14.879,47.7 15.752,47.326 16.059,46.557L13.274,45.443ZM19.881,34.297C19.123,33.961 18.237,34.302 17.901,35.06C17.566,35.817 17.907,36.703 18.665,37.039L19.881,34.297ZM12.597,31.583C13.011,32.3 13.929,32.546 14.646,32.132C15.364,31.718 15.61,30.801 15.196,30.083L12.597,31.583ZM22.607,22.109L13.274,45.443L16.059,46.557L25.393,23.223L22.607,22.109ZM18.665,37.039C21.53,38.309 24.754,38.516 27.758,37.622L26.902,34.747C24.582,35.437 22.093,35.278 19.881,34.297L18.665,37.039ZM27.758,37.622C30.761,36.728 33.348,34.792 35.052,32.162L32.534,30.531C31.218,32.562 29.221,34.057 26.902,34.747L27.758,37.622ZM35.052,32.162C36.756,29.532 37.466,26.38 37.054,23.273L34.08,23.667C34.398,26.066 33.85,28.5 32.534,30.531L35.052,32.162ZM37.054,23.273C36.643,20.166 35.136,17.308 32.806,15.213L30.8,17.443C32.599,19.061 33.763,21.268 34.08,23.667L37.054,23.273ZM32.806,15.213C30.476,13.117 27.475,11.921 24.342,11.84L24.264,14.839C26.683,14.902 29.001,15.825 30.8,17.443L32.806,15.213ZM24.342,11.84C21.209,11.759 18.15,12.799 15.714,14.772L17.603,17.103C19.483,15.579 21.845,14.777 24.264,14.839L24.342,11.84ZM15.714,14.772C13.279,16.744 11.627,19.521 11.056,22.602L14.006,23.149C14.447,20.77 15.722,18.626 17.603,17.103L15.714,14.772ZM11.056,22.602C10.485,25.684 11.031,28.868 12.597,31.583L15.196,30.083C13.987,27.987 13.565,25.529 14.006,23.149L11.056,22.602Z" fill="#009688"/>
<path d="M45.833,24.999C45.833,37.058 36.058,46.833 24,46.833L24,49.833C37.715,49.833 48.833,38.714 48.833,24.999L45.833,24.999ZM24,46.833C11.942,46.833 2.167,37.058 2.167,24.999L-0.833,24.999C-0.833,38.714 10.285,49.833 24,49.833L24,46.833ZM2.167,24.999C2.167,12.941 11.942,3.166 24,3.166L24,0.166C10.285,0.166 -0.833,11.284 -0.833,24.999L2.167,24.999ZM24,3.166C36.058,3.166 45.833,12.941 45.833,24.999L48.833,24.999C48.833,11.284 37.715,0.166 24,0.166L24,3.166Z" fill="#009688"/>
</svg>
