<svg width="46" height="46" viewBox="0 0 46 46" fill="none" xmlns="http://www.w3.org/2000/svg" xmlns:xlink="http://www.w3.org/1999/xlink">
<path d="M22,32.334L22,33.834L22,32.334ZM31.333,23L32.833,23L31.333,23ZM22,13.667L22,12.167L22,13.667ZM12.667,23L11.167,23L12.667,23ZM22,33.834C24.873,33.834 27.629,32.692 29.66,30.661L27.539,28.539C26.07,30.008 24.078,30.834 22,30.834L22,33.834ZM29.66,30.661C31.692,28.629 32.833,25.874 32.833,23L29.833,23C29.833,25.078 29.008,27.07 27.539,28.539L29.66,30.661ZM32.833,23C32.833,20.127 31.692,17.372 29.66,15.34L27.539,17.461C29.008,18.93 29.833,20.923 29.833,23L32.833,23ZM29.66,15.34C27.629,13.308 24.873,12.167 22,12.167L22,15.167C24.078,15.167 26.07,15.992 27.539,17.461L29.66,15.34ZM22,12.167C19.127,12.167 16.371,13.308 14.34,15.34L16.461,17.461C17.93,15.992 19.922,15.167 22,15.167L22,12.167ZM14.34,15.34C12.308,17.372 11.167,20.127 11.167,23L14.167,23C14.167,20.923 14.992,18.93 16.461,17.461L14.34,15.34ZM11.167,23C11.167,25.874 12.308,28.629 14.34,30.661L16.461,28.539C14.992,27.07 14.167,25.078 14.167,23L11.167,23ZM14.34,30.661C16.371,32.692 19.127,33.834 22,33.834L22,30.834C19.922,30.834 17.93,30.008 16.461,28.539L14.34,30.661Z" fill="#009688"/>
<path d="M12.667,2L12.667,0.5L12.667,2ZM2.5,32.333L2.5,13.667L-0.5,13.667L-0.5,32.333L2.5,32.333ZM2.5,13.667C2.5,10.97 3.571,8.384 5.478,6.478L3.356,4.356C0.887,6.826 -0.5,10.175 -0.5,13.667L2.5,13.667ZM5.478,6.478C7.384,4.571 9.97,3.5 12.667,3.5L12.667,0.5C9.175,0.5 5.826,1.887 3.356,4.356L5.478,6.478ZM12.667,3.5L31.333,3.5L31.333,0.5L12.667,0.5L12.667,3.5ZM31.333,3.5C34.03,3.5 36.616,4.571 38.522,6.478L40.644,4.356C38.174,1.887 34.825,0.5 31.333,0.5L31.333,3.5ZM38.522,6.478C40.429,8.384 41.5,10.97 41.5,13.667L44.5,13.667C44.5,10.175 43.113,6.826 40.644,4.356L38.522,6.478ZM41.5,13.667L41.5,32.333L44.5,32.333L44.5,13.667L41.5,13.667ZM41.5,32.333C41.5,35.03 40.429,37.616 38.522,39.522L40.644,41.644C43.113,39.174 44.5,35.825 44.5,32.333L41.5,32.333ZM38.522,39.522C36.616,41.429 34.03,42.5 31.333,42.5L31.333,45.5C34.825,45.5 38.174,44.113 40.644,41.644L38.522,39.522ZM31.333,42.5L12.667,42.5L12.667,45.5L31.333,45.5L31.333,42.5ZM12.667,42.5C9.97,42.5 7.384,41.429 5.478,39.522L3.356,41.644C5.826,44.113 9.175,45.5 12.667,45.5L12.667,42.5ZM5.478,39.522C3.571,37.616 2.5,35.03 2.5,32.333L-0.5,32.333C-0.5,35.825 0.887,39.174 3.356,41.644L5.478,39.522Z" fill="#009688"/>
</svg>
