<svg width="62" height="48" viewBox="0 0 62 48" fill="none" xmlns="http://www.w3.org/2000/svg" xmlns:xlink="http://www.w3.org/1999/xlink">
<path d="M31.414,21.586C31.789,21.961 32,22.47 32,23C32,23.53 31.789,24.039 31.414,24.414L20.1,35.728C19.916,35.919 19.695,36.071 19.451,36.176C19.207,36.281 18.944,36.336 18.679,36.338C18.413,36.341 18.15,36.29 17.904,36.189C17.658,36.089 17.435,35.94 17.247,35.753C17.059,35.565 16.911,35.342 16.81,35.096C16.71,34.85 16.659,34.587 16.662,34.321C16.664,34.055 16.719,33.793 16.824,33.549C16.929,33.305 17.081,33.084 17.272,32.9L27.172,23L17.272,13.1C16.908,12.723 16.706,12.217 16.711,11.693C16.715,11.169 16.926,10.667 17.296,10.296C17.667,9.925 18.169,9.715 18.693,9.711C19.218,9.706 19.723,9.908 20.1,10.272L31.414,21.586Z" clip-rule="evenodd" fill-rule="evenodd" fill="#66EDD9"/>
<path d="M45.414,21.586C45.789,21.961 46,22.47 46,23C46,23.53 45.789,24.039 45.414,24.414L34.1,35.728C33.916,35.919 33.695,36.071 33.451,36.176C33.207,36.281 32.944,36.336 32.679,36.338C32.413,36.341 32.15,36.29 31.904,36.189C31.658,36.089 31.435,35.94 31.247,35.753C31.059,35.565 30.911,35.342 30.81,35.096C30.71,34.85 30.659,34.587 30.662,34.321C30.664,34.055 30.719,33.793 30.824,33.549C30.929,33.305 31.081,33.084 31.272,32.9L41.172,23L31.272,13.1C30.908,12.723 30.706,12.217 30.711,11.693C30.715,11.169 30.926,10.667 31.296,10.296C31.667,9.925 32.169,9.715 32.693,9.711C33.218,9.706 33.723,9.908 34.1,10.272L45.414,21.586Z" clip-rule="evenodd" fill-rule="evenodd" fill="#009688"/>
</svg>
