<svg width="156" height="152" viewBox="0 0 156 152" fill="none" xmlns="http://www.w3.org/2000/svg" xmlns:xlink="http://www.w3.org/1999/xlink">
<path d="M8.98,127.914C12.838,127.914 16.183,125.415 17.305,121.912L35.038,121.912C35.412,121.912 35.786,121.832 36.14,121.675L36.179,121.675C36.513,121.498 36.809,121.341 37.026,121.045C37.203,120.927 37.302,120.808 37.42,120.651L52.082,105.989C50.213,105.261 48.342,104.395 46.592,103.49L33.898,116.243L17.307,116.243C16.165,112.739 12.839,110.24 8.982,110.24C4.101,110.24 0.146,114.195 0.146,119.076C0.144,123.939 4.119,127.914 8.98,127.914Z" fill="#009688"/>
<path d="M122.101,36.051L138.81,36.051C140.05,39.397 143.218,41.777 147.016,41.777C151.897,41.777 155.852,37.822 155.852,32.941C155.852,28.06 151.897,24.164 147.016,24.164C143.061,24.164 139.715,26.761 138.633,30.404L121,30.404C120.252,30.384 119.504,30.64 118.914,31.191L103.838,46.304C105.767,47.032 107.578,47.899 109.387,48.744L122.101,36.051Z" fill="#009688"/>
<path d="M75.144,17.469L75.144,41.026C76.109,40.966 77.014,40.966 77.978,40.966C78.942,40.966 79.847,40.966 80.811,41.026L80.813,17.469C84.316,16.328 86.816,13.001 86.816,9.144C86.816,4.263 82.861,0.308 77.979,0.308C73.098,0.308 69.143,4.263 69.143,9.144C69.143,12.983 71.623,16.328 75.144,17.469Z" fill="#009688"/>
<path d="M8.98,41.758C12.778,41.758 16.005,39.376 17.246,36.032L33.895,36.032L46.589,48.725C48.4,47.821 50.209,47.033 52.138,46.285L37.024,31.172C36.985,31.132 36.907,31.112 36.867,31.074C36.631,30.838 36.414,30.74 36.179,30.621L36.159,30.621C35.785,30.464 35.372,30.384 34.958,30.384L17.423,30.384C16.341,26.764 12.955,24.145 8.98,24.145C4.099,24.145 0.144,28.062 0.144,32.922C0.144,37.783 4.119,41.758 8.98,41.758Z" fill="#009688"/>
<path d="M119.859,121.695C120.194,121.833 120.548,121.912 120.903,121.912L120.923,121.912L138.733,121.912C139.874,125.416 143.141,127.915 146.999,127.915C151.88,127.915 155.835,123.96 155.835,119.078C155.835,114.197 151.88,110.242 146.999,110.242C143.141,110.242 139.855,112.742 138.733,116.245L122.083,116.243L109.349,103.51C107.597,104.415 105.728,105.261 103.859,106.009L118.895,121.045C119.169,121.321 119.486,121.537 119.859,121.695Z" fill="#009688"/>
<path d="M134.621,78.008C135.585,76.926 135.585,75.292 134.621,74.21C133.539,73.069 109.017,46.619 77.98,46.619C47.003,46.619 22.422,73.069 21.402,74.21C20.378,75.292 20.378,76.926 21.402,78.008C22.367,79.09 45.529,104.064 75.148,105.599L75.168,105.599L75.168,134.548L75.148,134.548C71.645,135.689 69.145,139.016 69.145,142.873C69.145,147.754 73.101,151.709 77.982,151.709C82.863,151.709 86.818,147.754 86.818,142.873C86.818,139.035 84.339,135.689 80.835,134.548L80.835,105.599C110.492,104.064 133.597,79.092 134.62,78.008L134.621,78.008ZM100.751,57.345C114.113,63.071 124.426,72.184 128.501,76.139C124.426,80.056 114.115,89.226 100.693,94.933C104.944,89.837 107.483,83.263 107.483,76.139C107.481,69.015 104.982,62.501 100.751,57.345ZM27.442,76.139C31.517,72.184 41.828,63.051 55.192,57.345C50.941,62.501 48.461,69.015 48.461,76.139C48.461,83.263 51.001,89.837 55.252,94.933C41.829,89.226 31.537,80.056 27.443,76.139L27.442,76.139Z" fill="#009688"/>
</svg>
