<svg width="136" height="160" viewBox="0 0 136 160" fill="none" xmlns="http://www.w3.org/2000/svg" xmlns:xlink="http://www.w3.org/1999/xlink">
<path d="M8.95,140L66.641,140C68.019,140 69.224,138.795 69.224,137.418C69.225,136.04 67.848,134.835 66.47,134.835L8.955,134.835C6.888,134.835 5.338,133.285 5.338,131.219L5.338,48.561C5.338,46.495 6.888,44.945 8.955,44.945L29.964,44.945L29.964,32.374C29.964,17.393 42.19,5.166 57.172,5.166C72.154,5.166 84.381,17.392 84.381,32.374L84.381,44.945L105.219,44.945C107.285,44.945 108.835,46.495 108.835,48.561L108.835,84.724C108.835,86.101 110.04,87.306 111.418,87.306C112.795,87.306 114,86.101 114,84.724L114,48.561C114,43.74 110.038,39.779 105.217,39.779L89.374,39.779L89.374,32.374C89.374,14.465 74.909,0 57,0C39.091,0 24.626,14.465 24.626,32.374L24.626,39.779L8.783,39.779C3.961,39.779 0,43.74 0,48.561L0,131.39C0.173,136.04 4.134,140 8.956,140L8.95,140Z" fill="#009688"/>
<path d="M76,34.229C76,23.085 67.5,14 57,14C46.5,14 38,23.085 38,34.229L38,44L76,44L76,34.229ZM71,38.858L43,38.858L43,34.229C43,25.999 49.333,19.143 57,19.143C64.666,19.143 70.999,25.829 70.999,34.229L71,38.858Z" fill="#009688"/>
<path d="M65.067,115.823L65.067,102.056C66.901,100.091 68,97.408 68,94.727C68,88.648 63.233,84 57,84C50.951,84 46,88.828 46,94.727C46,97.408 46.917,99.911 48.749,102.056L48.749,116L65.067,116L65.067,115.823ZM57.002,89.185C60.119,89.185 62.502,91.509 62.502,94.548C62.502,96.158 61.769,97.588 60.486,98.661L59.569,99.376L59.569,110.281L54.437,110.281L54.437,99.376L53.52,98.661C52.603,97.946 51.686,96.516 51.686,94.548C51.502,91.509 54.069,89.185 57.002,89.185Z" fill="#009688"/>
<path d="M100.289,89.227C80.763,89.227 64.927,105.062 64.927,124.589C64.927,144.115 80.763,159.951 100.289,159.951C119.816,159.951 135.651,144.115 135.651,124.589C135.651,105.062 119.814,89.227 100.289,89.227ZM100.289,155.34C83.376,155.34 69.54,141.502 69.54,124.59C69.54,107.677 83.378,93.841 100.289,93.841C117.202,93.841 131.039,107.679 131.039,124.59C131.039,141.503 117.355,155.34 100.289,155.34Z" fill="#009688"/>
<path d="M117.352,109.523L91.982,134.739L83.374,126.128C82.45,125.205 81.068,125.205 80.145,126.128C79.222,127.051 79.222,128.434 80.145,129.357L92.137,141.349L120.735,112.751C121.658,111.827 121.658,110.445 120.735,109.522C119.811,108.602 118.275,108.602 117.352,109.523Z" fill="#009688"/>
</svg>
