<svg width="126" height="112" viewBox="0 0 126 112" fill="none" xmlns="http://www.w3.org/2000/svg" xmlns:xlink="http://www.w3.org/1999/xlink">
<path d="M120.072,0.895L5.927,0.895C4.361,0.895 2.86,1.517 1.753,2.624C0.645,3.731 0.023,5.233 0.023,6.799L0.023,89.454C0.023,91.02 0.645,92.522 1.753,93.629C2.86,94.735 4.361,95.358 5.927,95.358L51.19,95.358L51.19,107.165L31.51,107.166L31.51,111.102L94.485,111.102L94.485,107.166L74.805,107.166L74.805,95.358L120.07,95.358C121.636,95.358 123.138,94.735 124.244,93.629C125.352,92.522 125.974,91.019 125.974,89.454L125.974,6.799C125.974,5.233 125.352,3.731 124.244,2.624C123.138,1.517 121.636,0.895 120.07,0.895L120.072,0.895ZM122.04,89.455C122.04,89.976 121.832,90.477 121.464,90.847C121.095,91.216 120.594,91.423 120.072,91.423L5.927,91.423C4.841,91.423 3.959,90.542 3.959,89.455L3.959,6.8C3.959,5.713 4.841,4.831 5.927,4.831L120.072,4.831C120.594,4.831 121.095,5.039 121.464,5.408C121.832,5.778 122.04,6.278 122.04,6.8L122.04,89.455Z" fill="#009688"/>
<path d="M33.48,59.12L29.544,63.055L25.608,59.12L22.824,61.904L26.759,65.841L22.824,69.776L25.608,72.561L29.544,68.625L33.48,72.561L36.265,69.776L32.329,65.841L36.265,61.904L33.48,59.12Z" fill="#009688"/>
<path d="M29.08,34.273L24.996,30.19L22.212,32.974L29.08,39.843L38.094,30.829L35.308,28.044L29.08,34.273Z" fill="#009688"/>
<path d="M29.08,50.262L24.996,46.179L22.212,48.954L29.08,55.832L38.094,46.819L35.308,44.034L29.08,50.262Z" fill="#009688"/>
<rect  x="43.32" y="32.385" width="59.04" height="3.936" fill="#009688"/>
<rect  x="43.32" y="48.128" width="39.36" height="3.936" fill="#009688"/>
<rect  x="43.32" y="63.872" width="59.04" height="3.936" fill="#009688"/>
</svg>
