<svg width="116" height="114" viewBox="0 0 116 114" fill="none" xmlns="http://www.w3.org/2000/svg" xmlns:xlink="http://www.w3.org/1999/xlink">
<path d="M31.353,22.055C13.97,22.055 -0.172,36.199 -0.172,53.583C-0.172,64.777 5.842,75.177 15.546,80.81C15.564,80.825 15.582,80.839 15.602,80.853C17.872,82.558 19.174,85.165 19.174,88.003C19.174,88.121 19.186,88.238 19.208,88.351L19.208,97.883C19.208,97.886 19.207,97.891 19.207,97.895L19.207,106.314C19.207,109.864 22.095,112.752 25.646,112.752L37.06,112.752C40.608,112.752 43.496,109.864 43.496,106.314L43.496,97.895C43.496,97.891 43.495,97.886 43.495,97.883L43.495,88.346C43.517,88.233 43.527,88.118 43.527,88.003C43.527,85.166 44.829,82.56 47.1,80.853C47.119,80.84 47.138,80.826 47.156,80.81C56.858,75.176 62.869,64.776 62.869,53.583C62.869,36.198 48.731,22.055 31.352,22.055L31.353,22.055ZM39.719,106.313C39.719,107.779 38.527,108.972 37.062,108.972L25.648,108.972C24.18,108.972 22.987,107.78 22.987,106.313L22.987,99.783L39.719,99.783L39.719,106.313ZM44.986,77.7C44.809,77.801 44.652,77.928 44.522,78.073C41.581,80.422 39.861,83.868 39.754,87.629C39.729,87.75 39.718,87.873 39.718,87.999L39.718,96.007L22.988,96.007L22.988,87.991C22.988,87.862 22.975,87.736 22.948,87.613C22.838,83.862 21.123,80.427 18.193,78.081C18.059,77.933 17.899,77.802 17.717,77.698C9.013,72.776 3.606,63.535 3.606,53.583C3.606,38.282 16.053,25.833 31.352,25.833C46.648,25.833 59.089,38.281 59.089,53.583C59.09,63.535 53.685,72.776 44.985,77.7L44.986,77.7Z" fill="#009688"/>
<path d="M45.14,43.713L17.565,43.713C16.89,43.713 16.266,44.073 15.929,44.657C15.591,45.241 15.591,45.962 15.929,46.547L29.717,70.423C30.055,71.007 30.678,71.367 31.353,71.367C32.028,71.367 32.652,71.007 32.989,70.423L46.776,46.547C47.114,45.963 47.114,45.242 46.776,44.657C46.438,44.073 45.815,43.713 45.139,43.713L45.14,43.713ZM31.354,65.699L20.839,47.491L41.868,47.491L31.354,65.699Z" fill="#009688"/>
<path d="M9.365,19.29C9.716,19.896 10.35,20.234 11.003,20.234C11.323,20.234 11.649,20.152 11.946,19.98C12.849,19.457 13.159,18.302 12.636,17.399L6.798,7.296C6.276,6.393 5.122,6.084 4.217,6.606C3.314,7.128 3.005,8.283 3.527,9.187L9.365,19.29Z" fill="#009688"/>
<path d="M50.913,19.758C51.209,19.93 51.536,20.012 51.857,20.012C52.509,20.012 53.144,19.674 53.495,19.068L59.201,9.208C59.722,8.305 59.413,7.15 58.51,6.627C57.609,6.105 56.451,6.413 55.929,7.315L50.225,17.176C49.702,18.08 50.009,19.235 50.913,19.758Z" fill="#009688"/>
<path d="M31.687,14.493C32.731,14.493 33.577,13.648 33.577,12.603L33.577,1.208C33.577,0.165 32.732,-0.681 31.687,-0.681C30.644,-0.681 29.798,0.164 29.798,1.208L29.798,12.603C29.799,13.648 30.644,14.493 31.687,14.493Z" fill="#009688"/>
<path d="M91.518,36.763C79.029,36.763 68.87,46.925 68.87,59.416C68.87,60.459 69.717,61.305 70.76,61.305L80.768,61.305C81.81,61.305 82.657,60.459 82.657,59.416C82.657,54.526 86.632,50.549 91.518,50.549C96.408,50.549 100.386,54.526 100.386,59.416C100.386,64.306 96.408,68.282 91.518,68.282L86.521,68.282C85.478,68.282 84.632,69.129 84.632,70.172L84.632,92.228C84.632,93.27 85.478,94.117 86.521,94.117L96.523,94.117C97.566,94.117 98.413,93.27 98.413,92.228L98.413,80.97C107.764,77.989 114.172,69.329 114.172,59.418C114.172,46.925 104.009,36.763 91.518,36.763ZM96.067,77.708C95.226,77.918 94.634,78.675 94.634,79.542L94.634,90.337L88.41,90.337L88.411,72.061L91.519,72.061C98.492,72.061 104.165,66.388 104.165,59.417C104.165,52.444 98.492,46.771 91.519,46.771C85.19,46.771 79.934,51.448 79.018,57.527L72.742,57.527C73.693,48.002 81.75,40.541 91.518,40.541C101.927,40.541 110.393,49.008 110.393,59.416C110.394,68.088 104.503,75.609 96.067,77.708Z" fill="#009688"/>
<path d="M96.523,98.962L86.52,98.962C85.477,98.962 84.63,99.809 84.63,100.852L84.63,110.862C84.63,111.905 85.477,112.751 86.52,112.751L96.523,112.751C97.566,112.751 98.412,111.905 98.412,110.862L98.412,100.852C98.412,99.809 97.566,98.962 96.523,98.962ZM94.633,108.973L88.408,108.973L88.408,102.743L94.633,102.743L94.633,108.973Z" fill="#009688"/>
</svg>
