<svg width="148" height="136" viewBox="0 0 148 136" fill="none" xmlns="http://www.w3.org/2000/svg" xmlns:xlink="http://www.w3.org/1999/xlink">
<path d="M74,76.5C72.726,76.5 71.694,75.468 71.694,74.194L71.693,29.417C71.693,28.143 72.724,27.111 73.998,27.111C75.273,27.111 76.304,28.143 76.304,29.417L76.304,74.19C76.306,75.466 75.274,76.498 74,76.498L74,76.5Z" fill="#009688"/>
<path d="M113.91,92.539C112.636,92.539 111.605,91.507 111.605,90.233L111.605,80.704L78.202,80.704C76.927,80.704 75.896,79.672 75.896,78.398C75.896,77.124 76.927,76.093 78.202,76.093L113.91,76.093C115.184,76.093 116.216,77.124 116.216,78.398L116.216,90.233C116.217,91.507 115.184,92.539 113.91,92.539Z" fill="#009688"/>
<path d="M34.086,92.539C32.812,92.539 31.78,91.508 31.78,90.234L31.78,78.399C31.78,77.125 32.812,76.093 34.086,76.093L69.796,76.093C71.07,76.093 72.102,77.125 72.102,78.399C72.102,79.673 71.07,80.704 69.796,80.704L36.393,80.704L36.393,90.234C36.393,91.508 35.36,92.539 34.086,92.539Z" fill="#009688"/>
<path d="M99.184,64.758L48.817,64.758C37.612,64.758 28.498,55.642 28.498,44.438C28.498,39.011 30.611,33.908 34.449,30.07C38.016,26.503 42.676,24.426 47.675,24.15C48.2,17.95 50.867,12.191 55.316,7.742C60.306,2.752 66.942,0.004 73.999,0.004C81.056,0.004 87.691,2.752 92.682,7.742C97.131,12.191 99.8,17.95 100.323,24.15C105.322,24.424 109.982,26.503 113.549,30.068C117.387,33.906 119.502,39.009 119.502,44.436C119.502,49.862 117.388,54.965 113.551,58.805C109.713,62.644 104.611,64.758 99.183,64.758L99.184,64.758ZM48.817,28.732C44.62,28.732 40.676,30.366 37.71,33.332C34.743,36.3 33.109,40.243 33.109,44.439C33.109,53.1 40.156,60.147 48.815,60.147L99.182,60.147C103.378,60.147 107.321,58.512 110.289,55.546C113.256,52.578 114.89,48.634 114.89,44.439C114.89,35.778 107.845,28.733 99.184,28.733L98.116,28.733C96.842,28.733 95.81,27.702 95.81,26.428C95.81,14.402 86.026,4.618 74.001,4.618C61.974,4.615 52.191,14.399 52.191,26.425C52.191,27.699 51.16,28.73 49.886,28.73L48.817,28.732Z" fill="#009688"/>
<path d="M74,84.906C70.411,84.906 67.492,81.987 67.492,78.398C67.492,74.81 70.411,71.891 74,71.891C77.589,71.891 80.508,74.81 80.508,78.398C80.508,81.987 77.587,84.906 74,84.906ZM74,76.502C72.955,76.502 72.103,77.351 72.103,78.398C72.103,79.443 72.953,80.295 74,80.295C75.045,80.295 75.897,79.445 75.897,78.398C75.895,77.351 75.045,76.502 74,76.502Z" fill="#009688"/>
<path d="M141.649,135.996L86.172,135.996C82.781,135.996 80.023,133.237 80.023,129.847L80.023,120.492C80.023,117.101 82.782,114.342 86.172,114.342L141.649,114.341C145.039,114.341 147.798,117.1 147.798,120.49L147.798,129.845C147.798,133.237 145.039,135.996 141.649,135.996ZM86.172,118.952C85.325,118.952 84.634,119.641 84.634,120.49L84.634,129.845C84.634,130.692 85.324,131.383 86.172,131.383L141.649,131.381C142.495,131.381 143.187,130.692 143.187,129.843L143.187,120.488C143.187,119.641 142.497,118.95 141.649,118.95L86.172,118.952Z" fill="#009688"/>
<path d="M141.649,109.582L86.172,109.582C82.781,109.582 80.023,106.823 80.023,103.433L80.023,94.078C80.023,90.687 82.782,87.928 86.172,87.928L141.649,87.927C145.039,87.927 147.798,90.686 147.798,94.076L147.798,103.431C147.798,106.823 145.039,109.582 141.649,109.582ZM86.172,92.538C85.325,92.538 84.634,93.227 84.634,94.076L84.634,103.431C84.634,104.278 85.324,104.969 86.172,104.969L141.649,104.967C142.495,104.967 143.187,104.278 143.187,103.429L143.187,94.074C143.187,93.227 142.497,92.536 141.649,92.536L86.172,92.538Z" fill="#009688"/>
<path d="M135.078,98.754C135.078,100.415 133.731,101.763 132.068,101.763C130.406,101.763 129.059,100.415 129.059,98.754C129.059,97.091 130.406,95.743 132.068,95.743C133.731,95.743 135.078,97.091 135.078,98.754Z" fill="#009688"/>
<path d="M126.406,98.754C126.406,100.415 125.059,101.763 123.397,101.763C121.736,101.763 120.387,100.415 120.387,98.754C120.387,97.091 121.736,95.743 123.397,95.743C125.059,95.743 126.406,97.091 126.406,98.754Z" fill="#009688"/>
<path d="M110.988,101.058L92.748,101.058C91.474,101.058 90.442,100.027 90.442,98.753C90.442,97.479 91.474,96.447 92.748,96.447L110.988,96.447C112.262,96.447 113.294,97.479 113.294,98.753C113.294,100.027 112.262,101.058 110.988,101.058Z" fill="#009688"/>
<path d="M92.43,118.949C91.156,118.949 90.124,117.918 90.124,116.644L90.124,107.273C90.124,105.999 91.156,104.968 92.43,104.968C93.704,104.968 94.735,105.999 94.735,107.273L94.735,116.644C94.735,117.918 93.704,118.949 92.43,118.949Z" fill="#009688"/>
<path d="M135.391,118.949C134.116,118.949 133.085,117.918 133.085,116.644L133.085,107.273C133.085,105.999 134.116,104.968 135.391,104.968C136.665,104.968 137.696,105.999 137.696,107.273L137.696,116.644C137.696,117.918 136.665,118.949 135.391,118.949Z" fill="#009688"/>
<path d="M135.078,125.168C135.078,126.829 133.731,128.177 132.068,128.177C130.406,128.177 129.059,126.829 129.059,125.168C129.059,123.505 130.406,122.157 132.068,122.157C133.731,122.157 135.078,123.505 135.078,125.168Z" fill="#009688"/>
<path d="M126.406,125.168C126.406,126.829 125.059,128.177 123.397,128.177C121.736,128.177 120.387,126.829 120.387,125.168C120.387,123.505 121.736,122.157 123.397,122.157C125.059,122.157 126.406,123.505 126.406,125.168Z" fill="#009688"/>
<path d="M110.988,127.473L92.748,127.473C91.474,127.473 90.442,126.441 90.442,125.167C90.442,123.893 91.474,122.861 92.748,122.861L110.988,122.861C112.262,122.861 113.294,123.893 113.294,125.167C113.294,126.441 112.262,127.473 110.988,127.473Z" fill="#009688"/>
<path d="M61.828,135.996L6.352,135.996C2.961,135.996 0.202,133.237 0.202,129.847L0.202,120.492C0.202,117.101 2.961,114.343 6.352,114.343L61.828,114.343C65.219,114.343 67.977,117.102 67.977,120.492L67.977,129.847C67.979,133.238 65.22,135.996 61.828,135.996ZM6.352,118.952C5.505,118.952 4.814,119.642 4.814,120.49L4.814,129.845C4.814,130.692 5.503,131.383 6.352,131.383L61.828,131.383C62.675,131.383 63.366,130.694 63.366,129.845L63.366,120.49C63.366,119.643 62.677,118.952 61.828,118.952L6.352,118.952Z" fill="#009688"/>
<path d="M61.828,109.582L6.352,109.582C2.961,109.582 0.202,106.823 0.202,103.433L0.202,94.078C0.202,90.687 2.961,87.929 6.352,87.929L61.828,87.929C65.219,87.929 67.977,90.688 67.977,94.078L67.977,103.433C67.979,106.824 65.22,109.582 61.828,109.582ZM6.352,92.538C5.505,92.538 4.814,93.228 4.814,94.076L4.814,103.431C4.814,104.278 5.503,104.969 6.352,104.969L61.828,104.969C62.675,104.969 63.366,104.28 63.366,103.431L63.366,94.076C63.366,93.229 62.677,92.538 61.828,92.538L6.352,92.538Z" fill="#009688"/>
<path d="M55.254,98.754C55.254,100.415 53.907,101.763 52.243,101.763C50.582,101.763 49.234,100.415 49.234,98.754C49.234,97.091 50.582,95.743 52.243,95.743C53.907,95.743 55.254,97.091 55.254,98.754Z" fill="#009688"/>
<path d="M46.582,98.754C46.582,100.415 45.235,101.763 43.572,101.763C41.91,101.763 40.563,100.415 40.563,98.754C40.563,97.091 41.91,95.743 43.572,95.743C45.235,95.743 46.582,97.091 46.582,98.754Z" fill="#009688"/>
<path d="M31.164,101.058L12.924,101.058C11.65,101.058 10.618,100.027 10.618,98.753C10.618,97.479 11.65,96.447 12.924,96.447L31.164,96.447C32.438,96.447 33.47,97.479 33.47,98.753C33.471,100.027 32.438,101.058 31.164,101.058Z" fill="#009688"/>
<path d="M12.605,118.949C11.331,118.949 10.3,117.918 10.3,116.644L10.3,107.273C10.3,105.999 11.331,104.968 12.605,104.968C13.879,104.968 14.911,105.999 14.911,107.273L14.911,116.644C14.913,117.918 13.879,118.949 12.605,118.949Z" fill="#009688"/>
<path d="M55.57,118.949C54.296,118.949 53.265,117.918 53.265,116.644L53.265,107.273C53.265,105.999 54.296,104.968 55.57,104.968C56.844,104.968 57.876,105.999 57.876,107.273L57.876,116.644C57.877,117.918 56.844,118.949 55.57,118.949Z" fill="#009688"/>
<path d="M55.254,125.168C55.254,126.829 53.907,128.177 52.243,128.177C50.582,128.177 49.234,126.829 49.234,125.168C49.234,123.505 50.582,122.157 52.243,122.157C53.907,122.157 55.254,123.505 55.254,125.168Z" fill="#009688"/>
<path d="M46.582,125.168C46.582,126.829 45.235,128.177 43.572,128.177C41.91,128.177 40.563,126.829 40.563,125.168C40.563,123.505 41.91,122.157 43.572,122.157C45.235,122.157 46.582,123.505 46.582,125.168Z" fill="#009688"/>
<path d="M31.164,127.473L12.924,127.473C11.65,127.473 10.618,126.441 10.618,125.167C10.618,123.893 11.65,122.861 12.924,122.861L31.164,122.861C32.438,122.861 33.47,123.893 33.47,125.167C33.471,126.441 32.438,127.473 31.164,127.473Z" fill="#009688"/>
<path d="M74,56.211C73.262,56.211 72.537,55.857 72.091,55.201C71.376,54.148 71.649,52.714 72.703,51.997L83.688,44.532L83.688,37.284C83.688,36.01 84.719,34.979 85.994,34.979C87.268,34.979 88.299,36.01 88.299,37.284L88.299,45.754C88.299,46.519 87.921,47.233 87.289,47.662L75.294,55.813C74.897,56.083 74.447,56.211 74,56.211Z" fill="#009688"/>
<path d="M73.871,56.211C73.426,56.211 72.974,56.083 72.577,55.813L60.582,47.662C59.951,47.231 59.572,46.519 59.572,45.754L59.572,37.284C59.572,36.01 60.604,34.979 61.878,34.979C63.152,34.979 64.183,36.01 64.183,37.284L64.183,44.532L75.168,51.997C76.221,52.712 76.496,54.147 75.78,55.201C75.335,55.857 74.61,56.211 73.871,56.211Z" fill="#009688"/>
</svg>
