<svg width="120" height="112" viewBox="0 0 120 112" fill="none" xmlns="http://www.w3.org/2000/svg" xmlns:xlink="http://www.w3.org/1999/xlink">
<path d="M41.12,77.145C41.348,77.259 41.592,77.317 41.821,77.302C42.321,77.288 42.793,77.002 43.036,76.53L46.011,70.752L47.155,71.339C47.384,71.453 47.628,71.511 47.856,71.496C48.356,71.482 48.828,71.196 49.071,70.725L55.278,58.683C55.635,57.982 55.364,57.124 54.663,56.767C53.962,56.41 53.104,56.681 52.747,57.382L47.184,68.165L22.843,55.609L34.083,33.829C34.44,33.128 34.168,32.269 33.468,31.912C32.767,31.555 31.909,31.827 31.552,32.528L19.653,55.582C19.481,55.911 19.452,56.311 19.567,56.668C19.682,57.025 19.939,57.326 20.268,57.498L21.412,58.084L18.438,63.862C18.266,64.192 18.237,64.592 18.352,64.949C18.466,65.306 18.724,65.606 19.053,65.778L19.582,66.05L18.466,68.196C17.165,69.411 11.173,75.046 9.814,77.02C8.799,78.492 4.194,87.588 0.505,94.94C-0.669,97.27 0.276,100.146 2.592,101.346C3.351,101.732 4.166,101.904 4.952,101.875C5.41,101.861 5.854,101.775 6.282,101.632C6.682,102.891 7.555,103.907 8.727,104.521C9.513,104.921 10.357,105.107 11.171,105.064C11.644,105.05 12.115,104.964 12.559,104.807L12.559,104.865C12.973,106.123 13.846,107.168 15.032,107.768C15.804,108.168 16.648,108.354 17.492,108.325C17.935,108.311 18.393,108.226 18.836,108.097L18.893,108.097C19.279,109.312 20.123,110.4 21.367,111.029C22.153,111.429 22.997,111.615 23.812,111.572C25.543,111.514 27.202,110.542 28.06,108.883L34.567,96.255C34.924,95.554 34.652,94.696 33.951,94.339C33.251,93.982 32.392,94.253 32.035,94.954L25.529,107.582C24.985,108.627 23.698,109.042 22.655,108.497C22.155,108.24 21.782,107.796 21.597,107.253C21.425,106.71 21.468,106.138 21.74,105.623L22.298,104.537C22.655,103.836 22.383,102.978 21.682,102.62C21.468,102.506 21.224,102.463 20.996,102.463C20.538,102.463 20.094,102.706 19.837,103.106C19.808,103.149 19.779,103.192 19.766,103.235L19.208,104.321C18.951,104.821 18.508,105.194 17.964,105.379C17.421,105.551 16.849,105.508 16.334,105.236C15.834,104.979 15.447,104.535 15.276,103.992C15.105,103.449 15.148,102.877 15.419,102.362L15.977,101.275C16.334,100.575 16.063,99.716 15.362,99.359C15.319,99.331 15.276,99.316 15.233,99.302C14.661,99.073 14.032,99.244 13.645,99.702C13.574,99.787 13.517,99.874 13.459,99.974L12.901,101.06C12.358,102.105 11.071,102.52 10.027,101.975C9.527,101.718 9.155,101.274 8.969,100.731C8.797,100.188 8.841,99.616 9.112,99.101L9.67,98.014C10.027,97.314 9.755,96.455 9.055,96.098C8.354,95.741 7.496,96.013 7.139,96.714L7.068,96.857L6.825,97.315L6.582,97.787L6.497,97.945C6.01,98.903 4.823,99.274 3.865,98.788C2.922,98.302 2.536,97.13 3.022,96.186C8.027,86.19 11.431,79.611 12.132,78.595C13.19,77.036 18.567,71.917 20.556,70.072C20.67,69.958 20.77,69.829 20.856,69.686L22.071,67.312L38.032,75.55L36.587,78.338C36.387,78.71 36.373,79.153 36.544,79.554C37.574,81.956 40.234,88.792 40.133,91.467C40.005,95.014 38.217,101.449 33.984,103.652C33.283,104.009 33.026,104.867 33.383,105.568C33.64,106.068 34.169,106.354 34.699,106.327C34.9,106.327 35.114,106.269 35.3,106.169C37.788,104.867 39.834,102.437 41.234,99.132C42.236,96.758 42.893,93.926 42.979,91.567C43.107,88.221 40.347,81.285 39.432,79.054L40.576,76.852L41.105,77.123L41.12,77.145ZM22.157,64.159L21.628,63.888L23.958,59.368L43.494,69.451L41.163,73.97L22.157,64.159Z" fill="#009688"/>
<path d="M119.318,91.446C119.376,90.116 118.918,88.843 118.031,87.871L118.002,87.827L118.045,87.799C119.032,86.912 119.604,85.682 119.661,84.352C119.719,83.023 119.261,81.75 118.374,80.777C117.487,79.79 116.257,79.218 114.927,79.162L100.741,78.49C99.955,78.447 99.296,79.062 99.254,79.848C99.211,80.634 99.826,81.293 100.612,81.335L114.799,82.007C115.972,82.065 116.887,83.065 116.829,84.238C116.8,84.81 116.557,85.325 116.128,85.711C115.713,86.096 115.17,86.297 114.598,86.268L113.383,86.211C112.597,86.167 111.938,86.783 111.896,87.569C111.853,88.355 112.468,89.014 113.254,89.056L114.469,89.114C115.042,89.142 115.556,89.385 115.942,89.814C116.328,90.229 116.514,90.787 116.5,91.345C116.471,91.917 116.228,92.431 115.799,92.817C115.384,93.203 114.826,93.404 114.269,93.375L113.053,93.317C112.267,93.274 111.609,93.889 111.566,94.675C111.523,95.462 112.139,96.12 112.925,96.162L114.14,96.22C115.313,96.278 116.228,97.278 116.17,98.451C116.113,99.624 115.112,100.539 113.939,100.481L112.724,100.424C111.938,100.38 111.279,100.996 111.237,101.782C111.194,102.568 111.809,103.227 112.595,103.269L112.753,103.269L113.983,103.34C114.497,103.369 114.984,103.583 115.326,103.969C115.684,104.354 115.855,104.856 115.827,105.37C115.783,106.428 114.869,107.257 113.81,107.23C102.64,106.844 95.246,106.471 94.017,106.272C92.157,105.957 85.265,103.197 82.762,102.153C82.605,102.096 82.447,102.054 82.29,102.054L79.63,101.925L80.474,83.992L83.619,84.135L83.734,84.135C84.119,84.135 84.478,83.949 84.735,83.662C86.493,81.718 91.6,76.469 94.073,75.454C97.349,74.095 103.955,73.051 107.716,75.968C108.332,76.455 109.232,76.34 109.704,75.725C110.191,75.11 110.076,74.21 109.462,73.737C107.245,72.021 104.185,71.163 100.595,71.278C98.021,71.349 95.175,71.935 92.988,72.837C89.884,74.11 84.721,79.501 83.091,81.275L80.618,81.161L80.646,80.574C80.69,79.788 80.074,79.13 79.288,79.088L72.796,78.787L72.854,77.5C72.897,76.713 72.281,76.055 71.495,76.013L52.088,75.098C51.302,75.055 50.644,75.67 50.602,76.456C50.558,77.242 51.174,77.901 51.96,77.943L69.951,78.787L69.893,80.074L68.763,104.072L68.663,106.145L45.124,105.015C44.338,104.972 43.679,105.587 43.637,106.359C43.594,107.145 44.209,107.804 44.981,107.846L69.951,109.033L70.065,109.033C70.394,109.033 70.722,108.89 70.966,108.661C71.238,108.404 71.41,108.06 71.424,107.674L71.482,106.387L77.974,106.687L78.088,106.687C78.818,106.659 79.418,106.072 79.447,105.329L79.476,104.743L81.893,104.857C83.537,105.543 91.16,108.647 93.52,109.047C95.279,109.348 105.461,109.762 113.685,110.048L114.029,110.048C116.488,109.963 118.52,107.975 118.634,105.487C118.692,104.214 118.248,102.984 117.39,102.04L117.347,101.997C118.276,101.139 118.891,99.938 118.949,98.579C119.02,97.191 118.505,95.904 117.619,94.96L117.663,94.932C118.65,94.045 119.222,92.815 119.278,91.485L119.318,91.446ZM76.7,103.745L71.622,103.502L72.651,81.536L77.729,81.779L76.698,103.731L76.7,103.745Z" fill="#009688"/>
<path d="M44.581,39.147C47.355,41.021 54.705,42.336 57.094,42.722L58.367,44.853L57.867,45.154C57.537,45.354 57.309,45.654 57.223,46.026C57.138,46.398 57.195,46.785 57.381,47.099L60.713,52.676L59.612,53.333C58.94,53.734 58.725,54.606 59.125,55.278L67.991,70.123C68.263,70.581 68.763,70.839 69.264,70.81C69.492,70.81 69.722,70.739 69.936,70.609C70.608,70.209 70.823,69.336 70.423,68.664L62.271,55.035L63.372,54.378L80.161,44.324L85.753,40.978L101.113,66.619C101.513,67.291 102.386,67.506 103.058,67.106C103.73,66.706 103.945,65.833 103.544,65.161L87.455,38.303C87.254,37.974 86.955,37.745 86.582,37.66C86.211,37.575 85.824,37.631 85.51,37.817L84.409,38.475L81.077,32.898C80.677,32.226 79.804,32.011 79.132,32.411L78.632,32.711L77.388,30.638C77.044,28.894 75.414,20.827 74.442,18.639C73.727,16.995 68.421,8.299 64.116,1.277C62.744,-0.94 59.812,-1.669 57.581,-0.325C56.437,0.361 55.68,1.462 55.393,2.664C54.164,2.364 52.819,2.521 51.647,3.222C50.502,3.908 49.702,4.995 49.373,6.282L49.373,6.34C48.114,6.01 46.741,6.168 45.554,6.883C44.367,7.598 43.58,8.743 43.28,9.987C42.035,9.658 40.663,9.815 39.461,10.53C37.116,11.932 36.343,14.992 37.744,17.352L45.038,29.537C45.31,29.995 45.81,30.252 46.311,30.223C46.54,30.223 46.769,30.152 46.983,30.022C47.655,29.622 47.87,28.749 47.47,28.077L40.176,15.892C39.575,14.891 39.904,13.576 40.906,12.975C41.907,12.374 43.222,12.704 43.823,13.705L44.452,14.749C44.452,14.749 44.495,14.82 44.523,14.864L44.523,14.892C44.523,14.892 44.593,14.95 44.608,14.978C44.608,14.978 44.666,15.049 44.693,15.078L44.722,15.078C44.722,15.078 44.78,15.149 44.807,15.163L44.822,15.163C44.822,15.163 44.893,15.221 44.922,15.248L44.951,15.248C44.951,15.248 45.008,15.292 45.036,15.306L45.065,15.306C45.065,15.306 45.136,15.349 45.179,15.364L45.208,15.364C45.208,15.364 45.279,15.392 45.308,15.407L45.336,15.407C45.336,15.407 45.422,15.436 45.451,15.436L45.465,15.436L45.565,15.436L45.594,15.436L45.708,15.436L45.822,15.436L45.851,15.436C45.851,15.436 45.936,15.421 45.965,15.407L45.979,15.407C45.979,15.407 46.05,15.378 46.094,15.364L46.108,15.364C46.108,15.364 46.179,15.335 46.222,15.306L46.251,15.306C46.251,15.306 46.322,15.248 46.365,15.235C47.037,14.835 47.252,13.962 46.852,13.29L46.223,12.246C45.622,11.244 45.952,9.929 46.953,9.328C47.954,8.727 49.269,9.057 49.87,10.058L50.499,11.102C50.499,11.102 50.542,11.173 50.57,11.217L50.57,11.246C50.57,11.246 50.641,11.303 50.67,11.331C50.67,11.331 50.727,11.402 50.755,11.431L50.784,11.431C50.784,11.431 50.842,11.502 50.869,11.516L50.884,11.516C50.884,11.516 50.955,11.574 50.984,11.601L51.012,11.601C51.012,11.601 51.07,11.645 51.098,11.659L51.127,11.659C51.127,11.659 51.198,11.702 51.241,11.717L51.27,11.717C51.27,11.717 51.341,11.746 51.369,11.76L51.398,11.76C51.398,11.76 51.484,11.789 51.512,11.789L51.527,11.789L51.627,11.789L51.655,11.789L51.77,11.789L51.884,11.789L51.913,11.789C51.913,11.789 51.998,11.774 52.027,11.76L52.041,11.76C52.041,11.76 52.112,11.731 52.156,11.717L52.17,11.717C52.17,11.717 52.241,11.688 52.284,11.659L52.313,11.659C52.313,11.659 52.384,11.601 52.427,11.588C53.099,11.188 53.314,10.315 52.914,9.643L52.285,8.599C51.999,8.112 51.914,7.541 52.042,6.983C52.171,6.425 52.529,5.967 53.015,5.667C54.016,5.066 55.331,5.395 55.932,6.397L56.475,7.298L56.561,7.441C56.961,8.113 57.834,8.328 58.506,7.928C59.178,7.528 59.393,6.655 58.992,5.983L58.534,5.225L58.263,4.781C57.705,3.866 58.006,2.664 58.935,2.106C59.85,1.563 61.037,1.849 61.595,2.764C67.458,12.289 71.248,18.653 71.749,19.782C72.507,21.499 74.037,28.778 74.552,31.437C74.581,31.595 74.637,31.752 74.724,31.895L76.096,34.184L60.693,43.408L59.078,40.705C58.864,40.348 58.491,40.09 58.077,40.033C55.489,39.647 48.28,38.302 46.064,36.801C43.117,34.813 38.585,29.907 38.942,25.146C38.999,24.36 38.413,23.686 37.625,23.63C36.839,23.572 36.166,24.159 36.11,24.946C35.896,27.735 36.896,30.766 38.97,33.698C40.457,35.8 42.518,37.845 44.477,39.161L44.581,39.147ZM61.041,46.555L79.39,35.572L81.993,39.934L63.129,51.232L60.527,46.87L61.027,46.57L61.041,46.555Z" fill="#009688"/>
</svg>
