<svg width="192" height="192" viewBox="0 0 192 192" fill="none" xmlns="http://www.w3.org/2000/svg" xmlns:xlink="http://www.w3.org/1999/xlink">
<path d="M58.726,164.582L55.148,164.582L55.148,158.619C55.148,151.165 51.868,144.009 46.202,138.938L46.202,117.766C46.202,112.398 41.73,108.225 36.362,107.926L47.096,84.072C48.886,79.6 46.5,74.232 42.027,72.145C37.555,70.057 32.187,71.847 29.503,76.02L3.266,122.837C-0.313,128.502 -0.313,135.361 2.968,141.025L15.491,164.583L13.106,164.583C11.316,164.583 10.124,165.776 10.124,167.565L10.124,188.437C10.124,190.227 11.318,191.419 13.106,191.419L59.024,191.419C60.814,191.419 62.006,190.226 62.006,188.437L62.006,167.565C61.708,166.074 60.515,164.583 58.725,164.583L58.726,164.582ZM8.336,137.745C5.951,134.167 5.951,129.695 8.633,125.817L34.575,79.005C35.469,77.514 37.855,76.917 39.644,77.514C41.434,78.408 42.328,80.198 41.731,81.689L27.716,112.402C26.823,113.893 26.524,115.084 26.524,116.874L26.524,140.431C26.524,142.221 27.718,143.412 29.506,143.412C31.296,143.412 32.488,142.219 32.488,140.431L32.489,116.874C32.489,115.084 33.98,113.893 36.067,113.893C38.452,113.893 40.54,115.682 40.54,117.768L40.54,140.431C40.54,141.325 40.837,142.221 41.733,142.816C46.802,146.691 49.486,152.656 49.486,158.619L49.486,164.583L22.649,164.583L8.336,137.745ZM55.746,185.456L16.09,185.456L16.09,170.547L56.047,170.547L56.047,185.456L55.746,185.456Z" fill="#009688"/>
<path d="M188.734,122.836L162.494,75.723C159.81,71.847 154.443,70.057 149.97,72.144C145.198,74.232 143.111,79.301 144.9,84.072L155.636,107.926C149.971,108.224 145.796,112.398 145.796,117.766L145.796,138.938C140.13,144.007 136.85,151.163 136.85,158.619L136.85,164.582L133.272,164.582C131.482,164.582 130.29,165.775 130.29,167.564L130.29,188.436C130.29,190.226 131.483,191.418 133.272,191.418L179.19,191.418C180.98,191.418 182.171,190.225 182.171,188.436L182.171,167.564C182.171,165.774 180.978,164.582 179.19,164.582L176.507,164.582L189.031,141.025C192.311,135.36 192.311,128.204 188.732,122.836L188.734,122.836ZM175.912,185.453L136.256,185.453L136.256,170.544L176.213,170.544L176.213,185.453L175.912,185.453ZM183.666,138.039L169.652,164.579L142.815,164.579L142.815,158.615C142.815,152.652 145.796,146.688 150.568,142.812C151.165,142.215 151.761,141.321 151.761,140.427L151.761,117.764C151.761,115.677 153.849,113.889 156.233,113.889C158.023,113.889 159.812,115.379 159.812,116.87L159.812,140.427C159.812,142.217 161.005,143.408 162.793,143.408C164.583,143.408 165.775,142.215 165.775,140.427L165.775,116.869C165.775,115.378 165.178,113.887 164.582,112.396L150.866,81.981C150.269,80.49 151.163,78.403 152.953,77.806C154.743,76.912 157.128,77.508 158.022,78.999L184.263,126.113C186.053,129.691 186.053,134.163 183.666,138.039L183.666,138.039Z" fill="#009688"/>
<path d="M96,37.555C86.756,37.555 79.6,45.009 79.6,53.955C79.6,63.198 87.054,70.652 96,70.652C105.244,70.652 112.698,63.198 112.698,53.955C112.4,45.009 105.244,37.555 96,37.555ZM96,64.689C90.037,64.689 85.563,59.918 85.563,53.955C85.563,47.992 90.334,43.518 96,43.518C101.963,43.518 106.734,48.289 106.734,53.955C106.435,59.918 101.665,64.689 96,64.689Z" fill="#009688"/>
<path d="M139.535,83.477L133.572,71.549C134.168,70.356 134.466,69.462 135.063,68.268L147.587,64.093C148.78,63.796 149.674,62.603 149.674,61.112L149.674,46.799C149.674,45.606 148.78,44.414 147.587,43.817L135.063,39.642C134.765,38.449 134.168,37.555 133.572,36.362L139.535,24.434C140.132,23.241 139.833,21.75 138.939,20.856L128.799,11.018C127.905,10.124 126.414,9.825 125.221,10.422L113.293,16.385C112.1,15.788 111.206,15.491 110.013,15.192L105.838,2.667C105.542,1.476 104.647,0.582 103.157,0.582L88.844,0.582C87.65,0.582 86.459,1.476 86.16,2.669L81.985,15.193C80.791,15.491 79.897,16.087 78.704,16.386L66.776,10.423C65.583,9.827 64.092,10.126 63.198,11.02L53.062,21.454C52.168,22.348 51.868,23.839 52.465,25.032L58.428,36.96C57.832,38.153 57.534,39.047 56.938,40.24L44.413,44.415C43.22,44.713 42.326,45.906 42.326,47.099L42.326,61.412C42.326,62.606 43.22,63.797 44.413,64.096L56.938,68.271C57.235,69.465 57.832,70.359 58.428,71.552L52.465,83.48C51.869,84.673 52.168,86.164 53.062,87.058L63.2,97.196C64.094,98.09 65.585,98.389 66.778,97.792L78.706,91.829C79.899,92.426 80.793,92.723 81.986,93.32L86.161,105.844C86.459,107.037 87.652,107.931 88.845,107.931L103.158,107.931C104.351,107.931 105.543,107.037 105.842,105.844L110.017,93.32C111.21,93.022 112.105,92.426 113.298,92.127L125.225,98.09C126.419,98.686 127.91,98.387 128.804,97.493L138.942,87.355C139.833,86.161 140.13,84.67 139.535,83.477ZM126.116,91.527L114.785,85.861C113.891,85.564 112.995,85.564 112.101,85.861C110.311,86.756 108.523,87.352 107.032,87.949C106.138,88.246 105.541,88.843 105.242,89.739L101.366,101.666L91.229,101.666L87.353,89.739C87.055,88.845 86.459,88.248 85.563,87.949C83.773,87.352 81.985,86.756 80.494,85.861C79.6,85.564 78.704,85.564 77.81,85.861L66.478,91.527L59.322,84.371L64.988,73.04C65.285,72.145 65.285,71.25 64.988,70.356C64.094,68.566 63.497,66.777 62.9,65.286C62.603,64.392 62.006,63.796 61.111,63.497L49.183,59.621L49.183,49.483L61.111,45.607C62.005,45.31 62.601,44.713 62.9,43.817C63.497,42.027 64.094,40.239 64.988,38.748C65.285,37.854 65.285,36.958 64.988,36.064L59.322,24.733L66.478,17.577L77.81,23.242C78.704,23.54 79.6,23.54 80.494,23.242C82.284,22.348 84.072,21.752 85.563,21.155C85.86,20.262 86.756,19.367 87.054,18.472L90.929,6.545L101.067,6.545L104.945,18.472C105.242,19.367 105.839,19.963 106.734,20.262C108.524,20.859 110.313,21.455 111.804,22.35C112.698,22.647 113.593,22.647 114.488,22.35L125.819,16.684L132.975,23.84L127.309,35.172C127.012,36.066 127.012,36.961 127.309,37.856C128.204,39.645 128.8,41.434 129.397,42.925C129.694,43.819 130.291,44.415 131.187,44.715L143.114,48.59L143.114,58.728L131.782,63.2C130.887,63.498 130.291,64.095 129.992,64.99C129.395,66.78 128.799,68.568 127.904,70.059C127.607,70.954 127.607,71.849 127.904,72.743L133.57,84.075L126.116,91.527Z" fill="#009688"/>
<path d="M87.648,128.203C85.859,128.203 84.667,129.396 84.667,131.185L84.667,175.614C84.667,177.404 85.86,178.596 87.648,178.596C89.438,178.596 90.63,177.403 90.63,175.614L90.63,131.185C90.63,129.694 89.139,128.203 87.648,128.203Z" fill="#009688"/>
<path d="M104.348,128.203C102.558,128.203 101.366,129.396 101.366,131.185L101.366,175.614C101.366,177.404 102.559,178.596 104.348,178.596C106.137,178.596 107.329,177.403 107.329,175.614L107.329,131.185C107.329,129.694 106.137,128.203 104.348,128.203Z" fill="#009688"/>
<path d="M70.652,109.121C68.862,109.121 67.671,110.314 67.671,112.103L67.671,156.532C67.671,158.322 68.864,159.514 70.652,159.514C72.442,159.514 73.634,158.321 73.634,156.532L73.634,112.103C73.634,110.612 72.442,109.121 70.652,109.121Z" fill="#009688"/>
<path d="M121.344,109.121C119.554,109.121 118.362,110.314 118.362,112.103L118.362,156.532C118.362,158.322 119.555,159.514 121.344,159.514C123.134,159.514 124.325,158.321 124.325,156.532L124.325,112.103C124.325,110.612 122.835,109.121 121.344,109.121Z" fill="#009688"/>
</svg>
