<svg width="112" height="122" viewBox="0 0 112 122" fill="none" xmlns="http://www.w3.org/2000/svg" xmlns:xlink="http://www.w3.org/1999/xlink">
<path d="M109.135,26.545C109.135,23.414 107.891,20.41 105.677,18.196C103.462,15.981 100.458,14.737 97.328,14.737C94.196,14.737 91.192,15.981 88.978,18.196C86.763,20.41 85.519,23.414 85.519,26.545C85.519,29.676 86.763,32.68 88.978,34.895C91.192,37.109 94.196,38.353 97.328,38.353C100.458,38.353 103.462,37.109 105.677,34.895C107.891,32.68 109.135,29.676 109.135,26.545ZM89.455,26.545C89.455,24.457 90.284,22.455 91.761,20.979C93.237,19.502 95.239,18.673 97.327,18.673C99.415,18.673 101.417,19.502 102.894,20.979C104.37,22.454 105.2,24.457 105.2,26.545C105.2,28.632 104.37,30.635 102.894,32.112C101.417,33.587 99.415,34.417 97.327,34.417C95.239,34.417 93.237,33.587 91.761,32.112C90.284,30.635 89.455,28.632 89.455,26.545Z" fill="#65FFF1"/>
<path d="M28.585,44.788L8.295,52.128C6.39,52.236 4.588,53.033 3.226,54.371C1.863,55.708 1.033,57.495 0.891,59.398C0.748,61.302 1.302,63.193 2.448,64.718C3.596,66.244 5.259,67.301 7.127,67.692C8.995,68.083 10.943,67.783 12.606,66.845C14.269,65.909 15.534,64.399 16.167,62.598L31.006,67.991L31.006,67.99C29.236,69.646 28.327,72.025 28.542,74.439C28.758,76.853 30.073,79.033 32.109,80.349L19.828,89.52C17.336,89.766 15.109,91.182 13.83,93.336C12.552,95.489 12.374,98.123 13.353,100.428C14.33,102.733 16.346,104.436 18.783,105.014C21.22,105.592 23.787,104.976 25.695,103.355C27.604,101.734 28.627,99.302 28.453,96.804C28.277,94.306 26.923,92.04 24.807,90.701L37.068,81.648C39.88,81.599 42.453,80.054 43.816,77.594C45.18,75.133 45.127,72.133 43.678,69.722C42.23,67.31 39.605,65.855 36.792,65.904L16.502,58.563C16.184,56.907 15.342,55.396 14.101,54.254L28.94,48.861C29.778,51.296 31.754,53.167 34.231,53.871C36.707,54.575 39.372,54.023 41.365,52.394C43.359,50.764 44.43,48.262 44.232,45.694C44.034,43.127 42.593,40.819 40.374,39.514L48.935,32.448C50.679,32.27 52.313,31.515 53.579,30.303L60.408,36.305C59.968,37.423 59.848,38.639 60.06,39.821C60.271,41.003 60.808,42.102 61.608,42.997L72.255,54.391C72.504,54.665 72.824,54.863 73.181,54.963L75.68,55.631L75.68,69.84C75.68,70.362 75.887,70.863 76.256,71.232C76.625,71.601 77.126,71.808 77.647,71.808L77.805,71.808L78.631,82.082L78.631,82.219L78.632,82.219C77.951,83.344 77.647,84.657 77.764,85.966C77.881,87.276 78.412,88.514 79.281,89.501L81.584,119.198C81.666,120.224 82.523,121.012 83.552,121.009L103.232,121.009C104.26,121.012 105.117,120.224 105.2,119.198L108.978,71.808L109.136,71.808C109.658,71.808 110.158,71.601 110.527,71.232C110.896,70.863 111.103,70.362 111.103,69.84L111.103,54.096C111.103,50.443 109.652,46.938 107.069,44.355C104.485,41.771 100.981,40.32 97.328,40.32L89.456,40.32C85.979,40.327 82.632,41.648 80.088,44.02L78.868,43.764L70.031,34.416C69.135,33.5 67.964,32.901 66.696,32.709C65.428,32.518 64.134,32.743 63.006,33.353L55.645,26.898C55.874,26.145 55.993,25.363 56,24.576C55.971,22.299 54.96,20.146 53.224,18.672L62.434,14.737L62.434,14.736C64.883,14.609 67.132,13.348 68.517,11.326C69.904,9.304 70.269,6.752 69.506,4.423C68.742,2.093 66.937,0.252 64.624,-0.556C62.309,-1.366 59.751,-1.05 57.702,0.295C55.654,1.642 54.349,3.866 54.174,6.311C53.998,8.755 54.971,11.143 56.806,12.768L47.596,16.703C45.997,16.819 44.471,17.419 43.222,18.425C41.974,19.431 41.062,20.794 40.609,22.332L28.23,20.778L28.231,20.778C27.673,18.262 25.92,16.178 23.538,15.199C21.155,14.218 18.443,14.467 16.278,15.864C14.112,17.26 12.767,19.628 12.677,22.203C12.588,24.779 13.763,27.235 15.826,28.78C17.888,30.325 20.576,30.762 23.021,29.952C25.468,29.141 27.362,27.184 28.094,24.713L40.473,26.268L40.472,26.268C40.958,28.332 42.257,30.114 44.073,31.209L35.513,38.352C33.816,38.53 32.225,39.253 30.976,40.414C29.726,41.575 28.888,43.109 28.585,44.788ZM20.575,101.328C19.531,101.328 18.53,100.913 17.792,100.174C17.054,99.436 16.64,98.435 16.64,97.391C16.64,96.347 17.054,95.346 17.792,94.608C18.53,93.87 19.531,93.456 20.575,93.456C21.619,93.456 22.62,93.87 23.359,94.608C24.097,95.346 24.512,96.347 24.512,97.391C24.512,98.435 24.097,99.436 23.359,100.174C22.62,100.913 21.619,101.328 20.575,101.328ZM36.32,69.84C37.363,69.84 38.364,70.254 39.103,70.993C39.841,71.731 40.256,72.732 40.256,73.776C40.256,74.82 39.841,75.821 39.103,76.559C38.364,77.297 37.364,77.712 36.32,77.712C35.276,77.712 34.275,77.297 33.536,76.559C32.798,75.821 32.384,74.82 32.384,73.776C32.384,72.732 32.798,71.731 33.536,70.993C34.275,70.254 35.276,69.84 36.32,69.84ZM8.767,63.936C7.723,63.936 6.722,63.521 5.984,62.784C5.245,62.045 4.83,61.044 4.83,60C4.83,58.956 5.245,57.955 5.984,57.217C6.722,56.479 7.723,56.064 8.767,56.064C9.811,56.064 10.812,56.479 11.55,57.217C12.289,57.955 12.703,58.956 12.703,60C12.703,61.044 12.289,62.045 11.55,62.784C10.812,63.521 9.811,63.936 8.767,63.936ZM82.507,87.238C81.57,86.549 81.314,85.259 81.916,84.266L88.902,72.773C89.102,72.454 89.197,72.083 89.179,71.709L88.864,54.647L88.863,54.647C88.834,53.905 89.129,53.187 89.67,52.679C90.067,52.314 90.587,52.111 91.127,52.109L91.422,52.109C92.623,52.325 93.47,53.409 93.39,54.627L92.878,73.776L85.006,86.529C84.737,86.982 84.298,87.308 83.786,87.434C83.35,87.529 82.895,87.458 82.507,87.238ZM81.739,71.808L84.888,71.808L82.113,76.354L81.739,71.808ZM101.419,117.07L85.361,117.071L83.393,91.486L83.55,91.485C83.967,91.488 84.383,91.442 84.79,91.348C86.358,91.011 87.713,90.033 88.53,88.651L96.578,75.446C96.752,75.154 96.847,74.822 96.854,74.483L96.854,71.806L105.021,71.806L101.419,117.07ZM79.613,54.095C79.613,51.486 80.651,48.983 82.496,47.137C84.341,45.292 86.844,44.256 89.454,44.256L97.326,44.256C99.936,44.256 102.438,45.292 104.284,47.137C106.129,48.983 107.166,51.486 107.166,54.095L107.166,67.872L96.972,67.872L97.326,54.764C97.389,53.173 96.854,51.617 95.826,50.401C94.8,49.184 93.355,48.396 91.776,48.191C90.036,48.009 88.302,48.583 87.014,49.765C85.643,51.029 84.882,52.822 84.928,54.685L85.184,67.872L79.613,67.872L79.613,54.095ZM64.48,36.993C64.823,36.617 65.309,36.402 65.819,36.402C66.327,36.402 66.814,36.617 67.156,36.993L76.406,46.833L76.406,46.834C76.671,47.116 77.013,47.315 77.39,47.404C76.694,48.676 76.201,50.051 75.934,51.478L74.753,51.164L64.48,40.319C63.626,39.375 63.626,37.937 64.48,36.993ZM61.902,2.926C62.946,2.926 63.947,3.341 64.685,4.079C65.423,4.817 65.838,5.818 65.838,6.862C65.838,7.906 65.423,8.907 64.685,9.645C63.947,10.384 62.946,10.799 61.902,10.799C60.858,10.799 59.857,10.384 59.118,9.645C58.38,8.907 57.966,7.906 57.966,6.862C57.966,5.818 58.38,4.817 59.118,4.079C59.857,3.341 60.858,2.926 61.902,2.926ZM20.574,26.543C19.53,26.543 18.529,26.128 17.791,25.389C17.053,24.651 16.639,23.65 16.639,22.606C16.639,21.562 17.053,20.561 17.791,19.823C18.529,19.085 19.53,18.671 20.574,18.671C21.618,18.671 22.619,19.085 23.357,19.823C24.096,20.561 24.511,21.562 24.511,22.606C24.511,23.65 24.096,24.651 23.357,25.389C22.619,26.128 21.618,26.543 20.574,26.543ZM48.128,20.638C49.172,20.638 50.173,21.052 50.911,21.791C51.649,22.529 52.063,23.53 52.063,24.574C52.063,25.618 51.649,26.619 50.911,27.357C50.173,28.096 49.172,28.511 48.128,28.511C47.084,28.511 46.083,28.096 45.344,27.357C44.606,26.619 44.191,25.618 44.191,24.574C44.191,23.53 44.606,22.529 45.344,21.791C46.083,21.052 47.084,20.638 48.128,20.638ZM40.256,46.223C40.256,47.267 39.841,48.268 39.102,49.007C38.364,49.745 37.363,50.159 36.319,50.159C35.275,50.159 34.274,49.745 33.536,49.007C32.798,48.268 32.384,47.267 32.384,46.223C32.384,45.179 32.798,44.179 33.536,43.44C34.274,42.702 35.275,42.287 36.319,42.287C37.363,42.287 38.364,42.702 39.102,43.44C39.841,44.178 40.256,45.179 40.256,46.223Z" fill="#65FFF1"/>
</svg>
