<svg width="198" height="198" viewBox="0 0 198 198" fill="none" xmlns="http://www.w3.org/2000/svg" xmlns:xlink="http://www.w3.org/1999/xlink">
<path d="M174.816,66.446L166.813,66.446C172.29,77.205 175.386,89.018 175.887,101.081L136.723,101.081C136.546,88.29 134.941,75.556 131.935,63.121C133.662,62.355 135.434,61.503 137.205,60.585L137.204,60.585C135.528,58.844 134.207,56.794 133.313,54.55L129.99,56.167C125.617,41.67 119.057,29.927 111.424,22.58C118.985,24.42 126.256,27.298 133.028,31.131C133.815,28.839 135.04,26.723 136.637,24.898C117.597,14.113 95.332,10.481 73.851,14.656C52.372,18.831 33.086,30.539 19.472,47.671C5.858,64.802 -1.191,86.232 -0.407,108.101C0.377,129.97 8.944,150.839 23.751,166.953C38.556,183.064 58.63,193.361 80.356,195.987C102.08,198.612 124.028,193.395 142.247,181.273C160.466,169.151 173.758,150.923 179.729,129.871C185.701,108.818 183.96,86.324 174.819,66.445L174.816,66.446ZM129.508,101.081L95.09,101.081L95.09,71.977C105.344,71.592 115.47,69.546 125.069,65.921C127.816,77.446 129.303,89.235 129.508,101.081ZM95.09,108.298L129.508,108.298C129.308,120.408 127.761,132.458 124.894,144.224C115.098,142.105 105.112,140.97 95.09,140.835L95.09,108.298ZM123.211,59.032C114.229,62.534 104.723,64.508 95.09,64.87L95.09,21.135C106.701,23.65 116.956,38.321 123.211,59.031L123.211,59.032ZM71.562,22.579C64.039,29.816 57.742,41.121 53.303,55.117C46.536,51.651 40.214,47.379 34.476,42.391C44.969,32.764 57.727,25.948 71.562,22.579ZM29.339,47.507C35.953,53.343 43.304,58.284 51.205,62.201C48.051,74.927 46.371,87.972 46.198,101.08L7.08,101.08C7.923,81.151 15.812,62.166 29.341,47.506L29.339,47.507ZM24.397,155.968C13.858,142.238 7.809,125.592 7.078,108.296L46.262,108.296C46.424,121.113 48.037,133.87 51.073,146.323C41.9,148.695 32.967,151.924 24.396,155.966L24.397,155.968ZM29.208,161.719C36.906,158.281 44.879,155.493 53.043,153.388C57.416,167.798 63.975,179.387 71.564,186.778C55.27,182.814 40.526,174.091 29.208,161.719ZM87.876,188.156C76.527,185.685 66.468,171.668 60.192,151.682C69.303,149.746 78.567,148.61 87.876,148.293L87.876,188.156ZM87.876,140.879C80.027,141.14 72.209,141.966 64.478,143.35C62.292,143.743 60.215,144.158 58.181,144.618C55.261,132.725 53.683,120.542 53.48,108.297L87.877,108.297L87.876,140.879ZM87.876,101.082L53.48,101.082C53.68,88.988 55.219,76.953 58.071,65.2C60.061,66.009 62.095,66.796 64.26,67.518C71.9,70.023 79.844,71.494 87.876,71.891L87.876,101.082ZM87.876,64.783C80.707,64.38 73.621,63.05 66.796,60.826C64.434,60.06 62.182,59.209 60.018,58.29C66.271,37.954 76.439,23.653 87.876,21.204L87.876,64.783ZM95.092,188.154L95.092,148.096C104.458,148.21 113.789,149.251 122.95,151.201C116.674,171.449 106.528,185.663 95.092,188.156L95.092,188.154ZM111.427,186.776C119.189,179.298 125.64,167.533 130.1,152.905L130.1,152.906C138.25,155.096 146.185,158.023 153.803,161.653C142.491,174.055 127.737,182.803 111.428,186.778L111.427,186.776ZM158.571,155.989C150.061,151.79 141.164,148.429 132.004,145.953C134.963,133.613 136.546,120.985 136.727,108.298L175.891,108.298C175.18,125.603 169.129,142.261 158.572,155.989L158.571,155.989Z" fill="#009688"/>
<path d="M185.289,23.238L185.289,14.71C185.285,10.704 183.69,6.865 180.858,4.033C178.026,1.2 174.185,-0.393 170.18,-0.399L162.352,-0.399C158.343,-0.393 154.501,1.2 151.666,4.032C148.83,6.864 147.231,10.703 147.22,14.71L147.22,23.238C144.629,23.888 142.273,25.252 140.419,27.175C138.715,28.923 137.48,31.075 136.833,33.428C136.481,34.688 136.305,35.991 136.308,37.299L136.308,47.707C136.314,51.557 137.845,55.247 140.567,57.969C143.289,60.69 146.979,62.222 150.827,62.228L181.682,62.228C185.536,62.234 189.235,60.706 191.963,57.983C194.69,55.259 196.223,51.562 196.223,47.707L196.223,37.299C196.22,34.073 195.145,30.941 193.165,28.396C191.185,25.849 188.414,24.035 185.289,23.238ZM169.064,44.623L169.064,44.625C168.86,44.754 168.649,44.87 168.43,44.974L168.43,48.363C168.43,48.943 168.199,49.5 167.79,49.91C167.38,50.319 166.823,50.55 166.243,50.55C165.892,50.545 165.547,50.455 165.238,50.287C164.668,49.987 164.261,49.451 164.122,48.822C164.101,48.677 164.101,48.529 164.122,48.386L164.122,44.974C163.895,44.875 163.675,44.759 163.466,44.625C162.087,43.674 161.267,42.101 161.279,40.426C161.292,37.641 163.547,35.387 166.332,35.375C167.914,35.375 169.405,36.119 170.356,37.386C171.196,38.494 171.543,39.899 171.311,41.271C171.079,42.642 170.29,43.856 169.13,44.625L169.064,44.623ZM178.073,18.383L178.073,22.756L154.436,22.757L154.436,14.71C154.442,12.614 155.278,10.606 156.761,9.126C158.246,7.648 160.255,6.816 162.352,6.816L170.179,6.816C172.273,6.816 174.281,7.648 175.761,9.128C177.241,10.609 178.073,12.616 178.073,14.709L178.073,18.383Z" fill="#009688"/>
</svg>
