<svg width="26" height="42" viewBox="0 0 26 42" fill="none" xmlns="http://www.w3.org/2000/svg" xmlns:xlink="http://www.w3.org/1999/xlink">
<path d="M14.333,16L24.833,16L23.667,20.667L14.333,20.667L14.333,41.667L9.667,41.667L9.667,20.667L0.333,20.667L0.333,16L9.667,16L9.667,11.632C9.667,7.472 10.101,5.962 10.913,4.441C11.709,2.938 12.938,1.709 14.441,0.913C15.962,0.101 17.472,-0.333 21.632,-0.333C22.852,-0.333 23.919,-0.216 24.833,0.017L24.833,4.334L21.632,4.334C18.543,4.334 17.602,4.516 16.641,5.029C15.951,5.39 15.388,5.953 15.029,6.644C14.515,7.603 14.333,8.543 14.333,11.632L14.333,16Z" fill="#009688"/>
</svg>
