<svg width="42" height="40" viewBox="0 0 42 40" fill="none" xmlns="http://www.w3.org/2000/svg" xmlns:xlink="http://www.w3.org/1999/xlink">
<path d="M20.002,13.283C22.142,11.096 24.928,9.666 28.169,9.666C31.573,9.666 34.837,11.018 37.244,13.425C39.65,15.832 41.002,19.096 41.002,22.499L41.002,39.999L36.336,39.999L36.336,22.499C36.336,20.333 35.475,18.256 33.944,16.725C32.412,15.193 30.335,14.333 28.169,14.333C26.003,14.333 23.926,15.193 22.394,16.725C20.863,18.256 20.002,20.333 20.002,22.499L20.002,39.999L15.336,39.999L15.336,10.833L20.002,10.833L20.002,13.283ZM3.669,6.166C2.741,6.166 1.851,5.797 1.194,5.141C0.538,4.485 0.169,3.594 0.169,2.666C0.169,1.738 0.538,0.848 1.194,0.191C1.851,-0.465 2.741,-0.834 3.669,-0.834C4.597,-0.834 5.487,-0.465 6.144,0.191C6.8,0.848 7.169,1.738 7.169,2.666C7.169,3.594 6.8,4.485 6.144,5.141C5.487,5.797 4.597,6.166 3.669,6.166ZM1.336,10.833L6.002,10.833L6.002,39.999L1.336,39.999L1.336,10.833Z" fill="#009688"/>
</svg>
