<svg width="24" height="40" viewBox="0 0 24 40" fill="none" xmlns="http://www.w3.org/2000/svg" xmlns:xlink="http://www.w3.org/1999/xlink">
<path d="M0.639,35.868C-0.17,36.619 -0.217,37.885 0.534,38.694C1.286,39.504 2.552,39.551 3.361,38.799L0.639,35.868ZM20.667,20L22.028,21.466L23.606,20L22.028,18.535L20.667,20ZM3.361,1.201C2.552,0.45 1.286,0.497 0.534,1.306C-0.217,2.115 -0.17,3.381 0.639,4.132L3.361,1.201ZM3.361,38.799L22.028,21.466L19.306,18.535L0.639,35.868L3.361,38.799ZM22.028,18.535L3.361,1.201L0.639,4.132L19.306,21.466L22.028,18.535Z" transform="rotate(360 11.333 20)" fill="#009688" fill-opacity="0.26"/>
</svg>
