<svg width="28" height="16" viewBox="0 0 28 16" fill="none" xmlns="http://www.w3.org/2000/svg" xmlns:xlink="http://www.w3.org/1999/xlink">
<path d="M15.414,14.414C15.039,14.789 14.53,14.999 14,14.999C13.47,14.999 12.961,14.789 12.586,14.414L1.272,3.1C1.081,2.915 0.929,2.695 0.824,2.451C0.719,2.207 0.664,1.944 0.661,1.679C0.659,1.413 0.71,1.15 0.81,0.904C0.911,0.658 1.059,0.435 1.247,0.247C1.435,0.059 1.658,-0.089 1.904,-0.19C2.15,-0.29 2.413,-0.341 2.679,-0.339C2.944,-0.336 3.207,-0.281 3.451,-0.176C3.695,-0.072 3.915,0.081 4.1,0.272L14,10.172L23.9,0.272C24.277,-0.093 24.782,-0.294 25.307,-0.29C25.831,-0.285 26.333,-0.075 26.704,0.296C27.074,0.667 27.285,1.169 27.289,1.693C27.294,2.217 27.092,2.723 26.728,3.1L15.414,14.414Z" clip-rule="evenodd" fill-rule="evenodd" fill="#090083"/>
</svg>
