<svg width="28" height="16" viewBox="0 0 28 16" fill="none" xmlns="http://www.w3.org/2000/svg" xmlns:xlink="http://www.w3.org/1999/xlink">
<path d="M14.414,14.414C14.039,14.789 13.53,15 13,15C12.47,15 11.961,14.789 11.586,14.414L0.272,3.1C0.081,2.916 -0.071,2.695 -0.176,2.451C-0.281,2.207 -0.336,1.945 -0.339,1.679C-0.341,1.413 -0.29,1.15 -0.19,0.904C-0.089,0.658 0.059,0.435 0.247,0.247C0.435,0.06 0.658,-0.089 0.904,-0.189C1.15,-0.29 1.413,-0.341 1.679,-0.338C1.944,-0.336 2.207,-0.281 2.451,-0.176C2.695,-0.071 2.915,0.081 3.1,0.272L13,10.172L22.9,0.272C23.277,-0.092 23.782,-0.294 24.307,-0.289C24.831,-0.285 25.333,-0.074 25.704,0.297C26.074,0.667 26.285,1.169 26.289,1.693C26.294,2.218 26.092,2.723 25.728,3.1L14.414,14.414Z" clip-rule="evenodd" fill-rule="evenodd" fill="#090083"/>
</svg>
