<svg width="24" height="40" viewBox="0 0 24 40" fill="none" xmlns="http://www.w3.org/2000/svg" xmlns:xlink="http://www.w3.org/1999/xlink">
<path d="M-0.028,35.868C-0.837,36.619 -0.884,37.885 -0.132,38.694C0.619,39.504 1.885,39.55 2.694,38.799L-0.028,35.868ZM20,20L21.361,21.465L22.939,20L21.361,18.534L20,20ZM2.694,1.201C1.885,0.449 0.619,0.496 -0.132,1.306C-0.884,2.115 -0.837,3.38 -0.028,4.132L2.694,1.201ZM2.694,38.799L21.361,21.465L18.639,18.534L-0.028,35.868L2.694,38.799ZM21.361,18.534L2.694,1.201L-0.028,4.132L18.639,21.465L21.361,18.534Z" fill="#009688"/>
</svg>
