<svg width="166" height="160" viewBox="0 0 166 160" fill="none" xmlns="http://www.w3.org/2000/svg" xmlns:xlink="http://www.w3.org/1999/xlink">
<path d="M151.391,133.215C145.634,133.215 140.769,136.923 138.935,142.057L94.45,142.057C93.114,138.314 90.17,135.368 86.429,134.031L86.429,120.263C117.514,117.982 142.124,92.022 142.124,60.365C142.124,27.214 115.153,0.244 81.999,0.244C59.137,0.244 39.222,13.076 29.054,31.91C29.034,31.945 29.001,31.963 28.984,31.999C28.961,32.044 28.965,32.095 28.943,32.14C24.444,40.563 21.873,50.166 21.873,60.362C21.873,70.558 24.443,80.162 28.943,88.583C28.964,88.628 28.961,88.679 28.984,88.725C28.998,88.752 29.027,88.76 29.043,88.786C38.539,106.404 56.579,118.716 77.571,120.255L77.571,134.023C73.829,135.36 70.883,138.306 69.549,142.049L25.061,142.051C23.227,136.916 18.362,133.208 12.605,133.208C5.289,133.214 -0.661,139.167 -0.661,146.485C-0.661,153.801 5.288,159.751 12.605,159.751C18.362,159.751 23.227,156.044 25.061,150.913L69.545,150.913C71.378,156.046 76.238,159.751 81.995,159.751C87.752,159.751 92.612,156.044 94.444,150.913L138.929,150.913C140.763,156.046 145.627,159.751 151.385,159.751C158.701,159.751 164.651,153.802 164.651,146.485C164.651,139.167 158.702,133.214 151.385,133.214L151.391,133.215ZM67.246,81.863C72.036,81.34 76.974,81.042 82,81.042C87.019,81.042 91.956,81.343 96.754,81.869C93.681,100.508 87,111.633 82.002,111.633C77.003,111.633 70.321,100.506 67.247,81.863L67.246,81.863ZM30.732,60.367C30.732,53.083 32.28,46.162 35.032,39.882C41.564,42.72 49.178,44.903 57.412,46.376C56.963,50.999 56.711,55.701 56.711,60.365C56.711,65.03 56.963,69.731 57.412,74.354C49.178,75.827 41.564,78.013 35.032,80.848C32.284,74.571 30.732,67.649 30.732,60.366L30.732,60.367ZM65.568,60.367C65.568,55.876 65.787,51.648 66.151,47.651C71.311,48.224 76.617,48.549 82.001,48.549C87.428,48.549 92.72,48.231 97.854,47.671C98.215,51.665 98.434,55.885 98.434,60.368C98.434,64.851 98.215,69.073 97.854,73.065C92.72,72.505 87.426,72.186 82.001,72.186C76.617,72.186 71.311,72.511 66.151,73.083C65.789,69.086 65.568,64.857 65.568,60.367ZM82.001,9.101C87,9.101 93.682,20.226 96.755,38.863C91.958,39.388 87.02,39.69 82.001,39.69C76.975,39.69 72.037,39.393 67.247,38.869C70.32,20.229 77.002,9.101 82.001,9.101ZM133.271,60.367C133.271,67.654 131.72,74.577 128.966,80.861C122.377,77.981 114.814,75.781 106.594,74.319C107.041,69.708 107.291,65.019 107.291,60.367C107.291,55.714 107.039,51.027 106.594,46.414C114.814,44.952 122.377,42.749 128.966,39.873C131.717,46.156 133.271,53.079 133.271,60.367ZM97.089,109.359C100.982,102.599 103.786,93.32 105.459,83.13C112.543,84.421 119.079,86.283 124.715,88.66C118.232,98.415 108.512,105.837 97.089,109.358L97.089,109.359ZM124.714,32.07C119.077,34.446 112.543,36.309 105.457,37.599C103.785,27.411 100.98,18.129 97.088,11.371C108.512,14.896 118.232,22.316 124.714,32.069L124.714,32.07ZM66.917,11.371C63.024,18.131 60.22,27.41 58.547,37.6C51.469,36.31 44.915,34.467 39.279,32.091C45.764,22.327 55.486,14.898 66.917,11.371ZM39.279,88.641C44.915,86.264 51.466,84.419 58.547,83.132C60.22,93.321 63.024,102.599 66.917,109.361C55.486,105.833 45.764,98.405 39.279,88.641ZM12.614,150.895C10.181,150.895 8.204,148.917 8.204,146.485C8.204,144.053 10.181,142.071 12.614,142.071C15.046,142.071 17.03,144.05 17.03,146.485C17.03,148.919 15.049,150.895 12.614,150.895ZM82.004,150.895C79.572,150.895 77.595,148.917 77.595,146.485C77.595,144.053 79.572,142.071 82.004,142.071C84.437,142.071 86.414,144.05 86.414,146.485C86.414,148.919 84.437,150.895 82.004,150.895ZM151.395,150.895C148.963,150.895 146.979,148.917 146.979,146.485C146.979,144.053 148.963,142.071 151.395,142.071C153.827,142.071 155.805,144.05 155.805,146.485C155.805,148.919 153.827,150.895 151.395,150.895Z" fill="#009688"/>
</svg>
