<svg width="90" height="104" viewBox="0 0 90 104" fill="none" xmlns="http://www.w3.org/2000/svg" xmlns:xlink="http://www.w3.org/1999/xlink">
<path d="M87.58,80.68C82.999,77.198 81.664,71.073 81.333,69.004C86.018,63.365 89.374,57.145 88.885,51.396C88.824,50.686 88.507,49.815 88.107,48.714C87.78,47.822 87.104,45.964 87.177,45.404C87.242,45.012 87.393,44.573 87.567,44.066C88.118,42.452 88.871,40.243 87.98,36.549C87.435,34.309 86.212,33.279 85.402,32.597C85.202,32.427 84.898,32.172 84.857,32.083C84.658,31.595 84.75,31.121 84.961,30.179C85.286,28.724 85.73,26.732 84.417,24.124C83.292,21.898 81.644,21.113 80.556,20.595C80.331,20.489 80.035,20.347 79.902,20.257C79.82,20.01 79.81,19.519 79.799,19.041C79.765,17.424 79.713,14.98 77.186,12.469C76.452,11.741 74.581,10.242 71.533,10.055C71.745,7.339 71.234,4.223 69.203,2.161C67.988,0.928 65.749,-0.395 61.993,0.315C56.967,1.261 50.258,4.783 49.045,5.436C43.672,3.823 40.715,5.731 37.022,8.123C36.557,8.424 36.069,8.739 35.553,9.065C34.608,9.658 33.476,10.429 32.358,11.314C32.175,11.239 31.981,11.184 31.774,11.168C25.574,10.725 14.252,9.946 12.087,19.633C8.572,21.221 5.029,24.501 4.365,28.784C4.222,29.716 4.201,30.805 4.435,32.009C2.742,33.334 0.231,35.902 0.03,39.606C-0.059,41.274 0.335,42.919 1.208,44.526C1.17,44.583 1.126,44.636 1.092,44.697C0.257,46.239 -2.285,50.927 0.001,55.95C1.261,58.723 3.791,61.062 7.542,62.957C7.694,65.101 7.71,71.436 3.212,76.073C2.486,76.821 2.503,78.017 3.252,78.742C3.618,79.099 4.094,79.276 4.568,79.276C5.062,79.276 5.553,79.085 5.923,78.703C10.478,74.007 11.317,68.08 11.361,64.583C13.233,65.254 15.311,65.85 17.602,66.364C19.783,66.855 21.749,67.1 23.492,67.1C26.761,67.1 29.246,66.238 30.918,64.526C32.804,62.591 33.122,60.093 33.071,58.379C35.124,58.286 36.802,57.894 37.876,57.148C41.105,54.905 41.311,51.131 41.175,49.189C41.93,48.965 42.593,48.672 43.144,48.304C48.477,44.748 46.414,37.954 46.004,36.771C46.27,36.279 46.509,35.759 46.687,35.18C47.666,31.976 47.078,27.507 44.299,24.639C47.251,23.093 49.157,22.631 51.148,22.157C54.234,21.422 57.425,20.661 64.041,16.334C70.575,12.059 73.716,14.344 74.521,15.147C75.966,16.583 75.991,17.759 76.02,19.119C76.02,19.129 76.021,19.141 76.021,19.15C76.018,22.446 70.893,28.962 66.485,32.369C65.66,33.007 65.508,34.193 66.145,35.02C66.516,35.502 67.076,35.754 67.641,35.754C68.045,35.754 68.453,35.624 68.795,35.36C72.03,32.86 76.383,28.184 78.509,23.794C78.65,23.866 78.796,23.939 78.93,24.003C79.807,24.421 80.501,24.751 81.043,25.821C81.728,27.183 81.558,28.067 81.295,29.252C80.048,32.491 78.13,37.347 71.453,43.903C70.709,44.633 70.697,45.829 71.427,46.575C71.798,46.952 72.287,47.14 72.775,47.14C73.253,47.14 73.731,46.96 74.099,46.598C78.574,42.207 81.063,38.561 82.747,35.291C82.821,35.355 82.896,35.421 82.967,35.481C83.598,36.012 84.053,36.398 84.306,37.433C84.823,39.573 84.609,40.866 84.249,42.045C81.94,48.658 77.238,54.111 77.19,54.165C76.505,54.952 76.587,56.144 77.374,56.829C77.731,57.141 78.175,57.293 78.614,57.293C79.14,57.293 79.665,57.075 80.037,56.646C80.176,56.486 82.38,53.925 84.6,50.127C84.819,50.727 85.089,51.474 85.119,51.711C85.883,60.713 73.797,73.2 62.244,80.994C58.415,83.575 54.632,85.222 50.625,86.967C44.962,89.432 38.544,92.226 30.899,98.228C30.078,98.873 29.934,100.059 30.579,100.88C30.952,101.354 31.506,101.602 32.066,101.602C32.474,101.602 32.885,101.471 33.231,101.199C37.784,97.625 41.81,95.278 45.589,93.41C45.727,93.583 45.893,93.737 46.095,93.856C46.15,93.888 51.719,97.207 54.466,102.815C54.793,103.484 55.465,103.873 56.164,103.873C56.443,103.873 56.725,103.811 56.994,103.679C57.931,103.222 58.319,102.089 57.859,101.152C55.534,96.404 51.622,93.125 49.493,91.59C50.38,91.194 51.26,90.811 52.135,90.429C56.304,88.613 60.242,86.901 64.358,84.123C68.428,81.377 73.646,77.242 78.225,72.468C79.139,75.779 81.112,80.5 85.295,83.68C85.636,83.938 86.038,84.064 86.436,84.064C87.007,84.064 87.57,83.808 87.941,83.317C88.573,82.496 88.412,81.31 87.58,80.681L87.58,80.68ZM28.853,14.8C27.897,16.09 27.28,17.461 27.354,18.833C27.484,21.271 29.28,23.652 32.162,25.206C34.4,26.413 37.565,27.186 40.542,26.393C40.621,26.47 40.704,26.542 40.799,26.606C43.133,28.181 43.797,31.712 43.072,34.078C42.731,35.193 41.959,36.522 40.215,36.522C36.021,36.522 22.509,31.205 17.354,25.285C16.027,23.764 15.437,22.409 15.596,21.261C16.286,16.275 19.836,14.473 28.853,14.8ZM28.209,61.89C26.649,63.493 23.266,63.769 18.425,62.68C10.252,60.847 5.068,57.982 3.437,54.392C2.364,52.036 2.939,49.698 3.753,47.847C4.219,48.317 4.714,48.782 5.266,49.243C10.828,53.886 21.411,57.512 29.286,58.255C29.353,59.247 29.259,60.815 28.209,61.89ZM35.719,54.05C32.895,56.009 15.584,52.933 7.686,46.344C4.995,44.096 3.686,41.899 3.8,39.814C3.892,38.085 4.943,36.676 5.921,35.724C6.907,37.329 8.419,39.031 10.671,40.758C17.689,46.148 28.95,49.752 36.643,49.752C36.908,49.752 37.165,49.743 37.419,49.735C37.464,50.948 37.279,52.964 35.717,54.051L35.719,54.05ZM41.046,45.163C37.503,47.521 21.999,44.695 12.969,37.762C10.452,35.831 7.564,32.803 8.097,29.367C8.453,27.066 10.213,25.143 12.179,23.893C12.601,25.172 13.369,26.466 14.503,27.767C20.478,34.626 35.216,40.3 40.215,40.3C41.171,40.3 42.051,40.095 42.858,39.744C43.117,41.41 43.061,43.822 41.046,45.163ZM50.27,18.486C47.771,19.082 45.187,19.698 40.775,22.272C38.998,23.31 36.321,23.156 33.956,21.881C32.294,20.985 31.183,19.709 31.127,18.632C31.08,17.766 32.787,15.271 37.563,12.265C38.094,11.931 38.594,11.608 39.073,11.297C41.628,9.644 43.225,8.608 45.34,8.608C46.299,8.608 47.361,8.82 48.668,9.283C51.514,10.293 53.403,11.486 56.018,13.134C56.931,13.709 57.912,14.329 59.027,14.998C54.927,17.376 52.654,17.918 50.27,18.486ZM62.518,12.828C62.373,12.642 62.192,12.48 61.975,12.355C60.456,11.469 59.188,10.669 58.032,9.941C56.492,8.97 55.13,8.117 53.653,7.347C56.18,6.142 59.829,4.569 62.69,4.03C64.393,3.706 65.677,3.972 66.507,4.815C67.593,5.917 68.036,8.155 67.684,10.501C66.144,10.919 64.43,11.64 62.518,12.828Z" fill="#009688"/>
</svg>
