<svg width="26" height="42" viewBox="0 0 26 42" fill="none" xmlns="http://www.w3.org/2000/svg" xmlns:xlink="http://www.w3.org/1999/xlink">
<path d="M14.333,15.999L24.833,15.999L23.667,20.666L14.333,20.666L14.333,41.666L9.667,41.666L9.667,20.666L0.333,20.666L0.333,15.999L9.667,15.999L9.667,11.631C9.667,7.471 10.101,5.961 10.913,4.44C11.709,2.937 12.938,1.708 14.441,0.912C15.962,0.1 17.472,-0.334 21.632,-0.334C22.852,-0.334 23.919,-0.217 24.833,0.016L24.833,4.333L21.632,4.333C18.543,4.333 17.602,4.515 16.641,5.028C15.951,5.389 15.388,5.952 15.029,6.643C14.515,7.602 14.333,8.542 14.333,11.631L14.333,15.999Z" fill="#009688"/>
</svg>
