<svg width="114" height="112" viewBox="0 0 114 112" fill="none" xmlns="http://www.w3.org/2000/svg" xmlns:xlink="http://www.w3.org/1999/xlink">
<path d="M55.77,26.115C39.481,26.115 26.227,39.391 26.227,55.71C26.227,72.028 39.48,85.305 55.77,85.305C72.059,85.305 85.31,72.03 85.31,55.71C85.31,39.392 72.058,26.115 55.77,26.115ZM81.047,46.565L71.864,46.565C71.079,42.413 69.761,38.598 67.964,35.394C66.746,33.222 65.36,31.425 63.853,30.029C71.832,32.555 78.21,38.718 81.047,46.565ZM70.037,55.709C70.037,58.017 69.866,60.266 69.549,62.417L57.105,62.417L57.105,49.233L69.601,49.233C69.887,51.325 70.037,53.496 70.037,55.709ZM28.899,55.709C28.899,53.478 29.176,51.309 29.69,49.233L39.258,49.233C38.985,51.336 38.841,53.503 38.841,55.709C38.841,57.996 38.994,60.243 39.287,62.417L29.745,62.417C29.192,60.273 28.899,58.025 28.899,55.709ZM41.507,55.709C41.507,53.496 41.655,51.326 41.942,49.233L54.438,49.233L54.438,62.418L41.975,62.418C41.668,60.254 41.507,58.005 41.507,55.709ZM54.438,29.356L54.438,46.565L42.391,46.565C43.13,42.892 44.317,39.529 45.905,36.701C48.275,32.477 51.265,29.919 54.438,29.356ZM54.438,65.086L54.438,82.062C51.266,81.5 48.275,78.942 45.905,74.717C44.35,71.948 43.183,68.667 42.441,65.085L54.438,65.086ZM57.106,82.056L57.106,65.086L69.072,65.086C67.14,74.223 62.508,81.076 57.106,82.056ZM57.106,46.566L57.106,29.357C60.279,29.919 63.269,32.477 65.64,36.7C67.227,39.53 68.414,42.891 69.153,46.564L57.106,46.565L57.106,46.566ZM47.691,30.03C46.185,31.425 44.798,33.223 43.579,35.395C41.783,38.597 40.466,42.414 39.681,46.566L30.496,46.566C33.334,38.718 39.714,32.556 47.691,30.03ZM30.583,65.087L39.723,65.087C40.513,69.151 41.815,72.882 43.579,76.025C44.798,78.198 46.183,79.995 47.69,81.39C39.792,78.889 33.461,72.825 30.583,65.087L30.583,65.087ZM63.855,81.39C65.362,79.995 66.747,78.197 67.967,76.025C69.73,72.882 71.032,69.151 71.822,65.087L80.963,65.087C78.085,72.825 71.754,78.889 63.855,81.39L63.855,81.39ZM81.803,62.419L72.261,62.419C72.553,60.246 72.707,57.998 72.707,55.711C72.707,53.504 72.562,51.337 72.29,49.236L81.856,49.236C82.37,51.312 82.647,53.479 82.647,55.711C82.646,58.027 82.353,60.275 81.803,62.419ZM108.233,98.597C106.243,98.597 104.556,99.909 103.988,101.713L89.157,101.713L80.315,92.87L87.968,92.873C88.536,94.677 90.224,95.989 92.212,95.989C94.665,95.989 96.66,93.994 96.66,91.54C96.66,89.087 94.665,87.09 92.212,87.09C90.223,87.09 88.535,88.403 87.968,90.205L55.765,90.203L55.765,90.202C36.751,90.197 21.283,74.726 21.283,55.71C21.283,36.691 36.757,21.22 55.773,21.22C74.79,21.22 90.265,36.694 90.265,55.71C90.265,62.303 88.404,68.467 85.182,73.71L88.268,73.71C91.237,68.373 92.933,62.237 92.933,55.71C92.933,35.22 76.263,18.55 55.773,18.55C35.283,18.55 18.616,35.221 18.616,55.71C18.616,76.106 35.134,92.71 55.496,92.862L76.541,92.867L88.052,104.379L103.988,104.379C104.556,106.183 106.244,107.494 108.232,107.494C110.685,107.494 112.681,105.499 112.681,103.046C112.682,100.592 110.687,98.597 108.233,98.597L108.233,98.597ZM92.211,89.756C93.194,89.756 93.992,90.556 93.992,91.538C93.992,92.521 93.194,93.32 92.211,93.32C91.229,93.32 90.429,92.521 90.429,91.538C90.429,90.556 91.229,89.756 92.211,89.756ZM108.233,104.827C107.25,104.827 106.451,104.029 106.451,103.046C106.451,102.064 107.25,101.264 108.233,101.264C109.215,101.264 110.014,102.064 110.014,103.046C110.014,104.029 109.214,104.827 108.233,104.827ZM79.483,102.869C78.709,102.869 77.983,103.069 77.349,103.416L70.567,96.634L49.841,96.633L49.84,96.633L49.84,96.634L42.234,108.327L34.364,105.598L35.628,91.706L27.185,85.315L14.158,90.304L9.394,83.471L18.582,72.974L15.508,62.842L2.034,59.219L2.196,50.891L15.798,47.8L19.267,37.795L10.496,26.946L15.523,20.304L28.346,25.799L37.032,19.743L36.315,5.811L44.285,3.393L51.431,15.375L62.017,15.582L69.624,3.888L77.494,6.617L76.23,20.509L84.673,26.9L97.7,21.911L102.464,28.744L93.276,39.242L96.35,49.374L109.822,52.996L109.66,61.324L96.057,64.415L92.835,73.709L95.66,73.709L98.094,66.689L112.287,63.462L112.532,50.963L98.476,47.183L96.262,39.885L105.848,28.931L98.698,18.676L85.105,23.88L79.024,19.277L80.341,4.78L68.527,0.684L60.589,12.886L52.964,12.737L45.509,0.235L33.545,3.865L34.294,18.401L28.038,22.763L14.658,17.03L7.112,26.999L16.262,38.319L13.763,45.525L-0.43,48.753L-0.674,61.254L13.382,65.034L15.596,72.333L6.01,83.286L13.16,93.541L26.753,88.337L32.834,92.94L31.517,107.436L43.331,111.532L51.269,99.33L51.254,99.303L69.462,99.303L75.503,105.344C75.207,105.94 75.035,106.61 75.035,107.321C75.035,109.774 77.03,111.771 79.483,111.771C81.936,111.771 83.931,109.775 83.931,107.321C83.933,104.865 81.936,102.869 79.483,102.869L79.483,102.869ZM79.483,109.1C78.5,109.1 77.701,108.3 77.701,107.318C77.701,106.335 78.5,105.536 79.483,105.536C80.465,105.536 81.264,106.335 81.264,107.318C81.264,108.3 80.465,109.1 79.483,109.1Z" fill="#009688"/>
</svg>
