<svg width="114" height="112" viewBox="0 0 114 112" fill="none" xmlns="http://www.w3.org/2000/svg" xmlns:xlink="http://www.w3.org/1999/xlink">
<path d="M55.77,26.115C39.481,26.115 26.228,39.39 26.228,55.71C26.228,72.028 39.481,85.305 55.77,85.305C72.06,85.305 85.31,72.029 85.31,55.71C85.31,39.392 72.058,26.115 55.77,26.115ZM81.048,46.565L71.864,46.565C71.079,42.413 69.761,38.597 67.965,35.394C66.746,33.221 65.36,31.424 63.853,30.029C71.832,32.555 78.21,38.717 81.048,46.565ZM70.037,55.709C70.037,58.016 69.866,60.265 69.55,62.417L57.105,62.417L57.105,49.233L69.601,49.233C69.887,51.325 70.037,53.496 70.037,55.709ZM28.899,55.709C28.899,53.477 29.177,51.309 29.69,49.233L39.258,49.233C38.985,51.336 38.841,53.503 38.841,55.709C38.841,57.996 38.994,60.243 39.287,62.417L29.745,62.417C29.192,60.273 28.899,58.025 28.899,55.709ZM41.507,55.709C41.507,53.496 41.655,51.326 41.942,49.233L54.438,49.233L54.438,62.418L41.975,62.418C41.668,60.253 41.507,58.005 41.507,55.709ZM54.439,29.356L54.439,46.565L42.392,46.565C43.13,42.891 44.317,39.529 45.905,36.701C48.275,32.476 51.266,29.919 54.439,29.356ZM54.439,65.086L54.439,82.062C51.266,81.5 48.276,78.942 45.905,74.717C44.351,71.947 43.184,68.667 42.442,65.085L54.439,65.086ZM57.107,82.056L57.107,65.086L69.072,65.086C67.141,74.223 62.508,81.075 57.107,82.056ZM57.107,46.566L57.107,29.357C60.279,29.918 63.27,32.477 65.64,36.7C67.228,39.53 68.414,42.891 69.154,46.564L57.107,46.565L57.107,46.566ZM47.692,30.03C46.185,31.425 44.798,33.223 43.579,35.395C41.783,38.597 40.466,42.413 39.681,46.566L30.496,46.566C33.334,38.718 39.714,32.556 47.692,30.03ZM30.583,65.087L39.724,65.087C40.514,69.151 41.815,72.882 43.579,76.025C44.798,78.197 46.184,79.994 47.69,81.39C39.792,78.889 33.461,72.824 30.583,65.087L30.583,65.087ZM63.856,81.39C65.362,79.994 66.747,78.197 67.967,76.025C69.73,72.882 71.032,69.151 71.822,65.087L80.963,65.087C78.085,72.824 71.754,78.889 63.855,81.39L63.856,81.39ZM81.803,62.419L72.261,62.419C72.553,60.245 72.707,57.998 72.707,55.711C72.707,53.504 72.563,51.337 72.29,49.236L81.857,49.236C82.37,51.312 82.648,53.479 82.648,55.711C82.647,58.026 82.354,60.275 81.803,62.419ZM108.233,98.597C106.244,98.597 104.556,99.909 103.989,101.713L89.158,101.713L80.315,92.87L87.968,92.873C88.536,94.677 90.224,95.988 92.212,95.988C94.665,95.988 96.661,93.993 96.661,91.54C96.661,89.087 94.665,87.09 92.212,87.09C90.223,87.09 88.536,88.402 87.968,90.205L55.766,90.203L55.766,90.202C36.751,90.196 21.283,74.726 21.283,55.71C21.283,36.691 36.757,21.22 55.773,21.22C74.791,21.22 90.266,36.693 90.266,55.71C90.266,62.302 88.404,68.466 85.183,73.71L88.269,73.71C91.237,68.373 92.934,62.237 92.934,55.71C92.934,35.219 76.264,18.55 55.774,18.55C35.283,18.55 18.616,35.221 18.616,55.71C18.616,76.106 35.135,92.71 55.496,92.862L76.541,92.867L88.052,104.379L103.988,104.379C104.557,106.182 106.244,107.494 108.233,107.494C110.686,107.494 112.681,105.499 112.681,103.046C112.682,100.592 110.688,98.596 108.234,98.596L108.233,98.597ZM92.211,89.756C93.194,89.756 93.993,90.556 93.993,91.538C93.993,92.52 93.194,93.319 92.211,93.319C91.229,93.319 90.429,92.52 90.429,91.538C90.429,90.556 91.229,89.756 92.211,89.756ZM108.233,104.827C107.25,104.827 106.452,104.028 106.452,103.046C106.452,102.063 107.25,101.264 108.233,101.264C109.215,101.264 110.014,102.063 110.014,103.046C110.014,104.028 109.214,104.827 108.233,104.827ZM79.483,102.869C78.709,102.869 77.983,103.068 77.349,103.416L70.567,96.634L49.841,96.633L49.84,96.633L49.84,96.634L42.234,108.326L34.365,105.598L35.628,91.705L27.185,85.315L14.158,90.304L9.394,83.471L18.582,72.974L15.508,62.841L2.034,59.218L2.196,50.891L15.798,47.799L19.267,37.794L10.497,26.945L15.523,20.304L28.346,25.798L37.033,19.743L36.315,5.811L44.286,3.393L51.431,15.374L62.017,15.581L69.625,3.888L77.494,6.617L76.23,20.509L84.673,26.899L97.701,21.91L102.464,28.743L93.276,39.241L96.35,49.374L109.822,52.996L109.66,61.323L96.057,64.415L92.835,73.709L95.66,73.709L98.094,66.688L112.288,63.462L112.533,50.963L98.476,47.183L96.262,39.885L105.848,28.931L98.699,18.675L85.105,23.879L79.024,19.277L80.341,4.78L68.528,0.684L60.589,12.885L52.964,12.737L45.509,0.235L33.545,3.865L34.294,18.401L28.038,22.762L14.658,17.03L7.112,26.999L16.262,38.319L13.763,45.525L-0.43,48.752L-0.674,61.253L13.383,65.034L15.596,72.332L6.01,83.285L13.16,93.541L26.754,88.337L32.835,92.94L31.517,107.436L43.331,111.531L51.269,99.33L51.255,99.303L69.463,99.303L75.504,105.344C75.207,105.939 75.035,106.609 75.035,107.32C75.035,109.773 77.03,111.77 79.483,111.77C81.936,111.77 83.931,109.774 83.931,107.32C83.933,104.864 81.936,102.869 79.483,102.869L79.483,102.869ZM79.483,109.1C78.5,109.1 77.702,108.3 77.702,107.317C77.702,106.335 78.5,105.536 79.483,105.536C80.465,105.536 81.264,106.335 81.264,107.317C81.264,108.3 80.465,109.1 79.483,109.1Z" fill="#009688"/>
</svg>
