<svg width="42" height="40" viewBox="0 0 42 40" fill="none" xmlns="http://www.w3.org/2000/svg" xmlns:xlink="http://www.w3.org/1999/xlink">
<path d="M20.002,13.284C22.142,11.097 24.928,9.667 28.169,9.667C31.573,9.667 34.837,11.019 37.244,13.426C39.65,15.833 41.002,19.097 41.002,22.5L41.002,40L36.336,40L36.336,22.5C36.336,20.334 35.475,18.257 33.944,16.726C32.412,15.194 30.335,14.334 28.169,14.334C26.003,14.334 23.926,15.194 22.394,16.726C20.863,18.257 20.002,20.334 20.002,22.5L20.002,40L15.336,40L15.336,10.834L20.002,10.834L20.002,13.284ZM3.669,6.167C2.741,6.167 1.85,5.798 1.194,5.142C0.538,4.485 0.169,3.595 0.169,2.667C0.169,1.739 0.538,0.848 1.194,0.192C1.85,-0.464 2.741,-0.833 3.669,-0.833C4.597,-0.833 5.487,-0.464 6.144,0.192C6.8,0.848 7.169,1.739 7.169,2.667C7.169,3.595 6.8,4.485 6.144,5.142C5.487,5.798 4.597,6.167 3.669,6.167ZM1.336,10.834L6.002,10.834L6.002,40L1.336,40L1.336,10.834Z" fill="#009688"/>
</svg>
