<svg width="384" height="77" viewBox="0 0 384 77" fill="none" xmlns="http://www.w3.org/2000/svg">
<circle cx="3" cy="74" r="3" transform="rotate(-90 3 74)" fill="#009688" fill-opacity="0.47"/>
<circle cx="3" cy="60" r="3" transform="rotate(-90 3 60)" fill="#0A0731" fill-opacity="0.39"/>
<circle cx="3" cy="46" r="3" transform="rotate(-90 3 46)" fill="#009688" fill-opacity="0.47"/>
<circle cx="3" cy="32" r="3" transform="rotate(-90 3 32)" fill="#0A0731" fill-opacity="0.39"/>
<circle cx="3" cy="18" r="3" transform="rotate(-90 3 18)" fill="#009688" fill-opacity="0.47"/>
<circle cx="3" cy="4" r="3" transform="rotate(-90 3 4)" fill="#0A0731" fill-opacity="0.39"/>
<circle cx="17" cy="3.5603" r="3" transform="rotate(90 17 3.5603)" fill="#009688" fill-opacity="0.47"/>
<circle cx="17" cy="17.5603" r="3" transform="rotate(90 17 17.5603)" fill="#0A0731" fill-opacity="0.39"/>
<circle cx="17" cy="31.5603" r="3" transform="rotate(90 17 31.5603)" fill="#009688" fill-opacity="0.47"/>
<circle cx="17" cy="45.5603" r="3" transform="rotate(90 17 45.5603)" fill="#0A0731" fill-opacity="0.39"/>
<circle cx="17" cy="59.5603" r="3" transform="rotate(90 17 59.5603)" fill="#009688" fill-opacity="0.47"/>
<circle cx="17" cy="73.5603" r="3" transform="rotate(90 17 73.5603)" fill="#0A0731" fill-opacity="0.39"/>
<circle cx="31" cy="74" r="3" transform="rotate(-90 31 74)" fill="#009688" fill-opacity="0.47"/>
<circle cx="31" cy="60" r="3" transform="rotate(-90 31 60)" fill="#0A0731" fill-opacity="0.39"/>
<circle cx="31" cy="46" r="3" transform="rotate(-90 31 46)" fill="#009688" fill-opacity="0.47"/>
<circle cx="31" cy="32" r="3" transform="rotate(-90 31 32)" fill="#0A0731" fill-opacity="0.39"/>
<circle cx="31" cy="18" r="3" transform="rotate(-90 31 18)" fill="#009688" fill-opacity="0.47"/>
<circle cx="31" cy="4" r="3" transform="rotate(-90 31 4)" fill="#0A0731" fill-opacity="0.39"/>
<circle cx="45" cy="3.5603" r="3" transform="rotate(90 45 3.5603)" fill="#009688" fill-opacity="0.47"/>
<circle cx="45" cy="17.5603" r="3" transform="rotate(90 45 17.5603)" fill="#0A0731" fill-opacity="0.39"/>
<circle cx="45" cy="31.5603" r="3" transform="rotate(90 45 31.5603)" fill="#009688" fill-opacity="0.47"/>
<circle cx="45" cy="45.5603" r="3" transform="rotate(90 45 45.5603)" fill="#0A0731" fill-opacity="0.39"/>
<circle cx="45" cy="59.5603" r="3" transform="rotate(90 45 59.5603)" fill="#009688" fill-opacity="0.47"/>
<circle cx="45" cy="73.5603" r="3" transform="rotate(90 45 73.5603)" fill="#0A0731" fill-opacity="0.39"/>
<circle cx="59" cy="74" r="3" transform="rotate(-90 59 74)" fill="#009688" fill-opacity="0.47"/>
<circle cx="59" cy="60" r="3" transform="rotate(-90 59 60)" fill="#0A0731" fill-opacity="0.39"/>
<circle cx="59" cy="46" r="3" transform="rotate(-90 59 46)" fill="#009688" fill-opacity="0.47"/>
<circle cx="59" cy="32" r="3" transform="rotate(-90 59 32)" fill="#0A0731" fill-opacity="0.39"/>
<circle cx="59" cy="18" r="3" transform="rotate(-90 59 18)" fill="#009688" fill-opacity="0.47"/>
<circle cx="59" cy="4" r="3" transform="rotate(-90 59 4)" fill="#0A0731" fill-opacity="0.39"/>
<circle cx="73" cy="3.5603" r="3" transform="rotate(90 73 3.5603)" fill="#009688" fill-opacity="0.47"/>
<circle cx="73" cy="17.5603" r="3" transform="rotate(90 73 17.5603)" fill="#0A0731" fill-opacity="0.39"/>
<circle cx="73" cy="31.5603" r="3" transform="rotate(90 73 31.5603)" fill="#009688" fill-opacity="0.47"/>
<circle cx="73" cy="45.5603" r="3" transform="rotate(90 73 45.5603)" fill="#0A0731" fill-opacity="0.39"/>
<circle cx="73" cy="59.5603" r="3" transform="rotate(90 73 59.5603)" fill="#009688" fill-opacity="0.47"/>
<circle cx="73" cy="73.5603" r="3" transform="rotate(90 73 73.5603)" fill="#0A0731" fill-opacity="0.39"/>
<circle cx="87" cy="74" r="3" transform="rotate(-90 87 74)" fill="#009688" fill-opacity="0.47"/>
<circle cx="87" cy="60" r="3" transform="rotate(-90 87 60)" fill="#0A0731" fill-opacity="0.39"/>
<circle cx="87" cy="46" r="3" transform="rotate(-90 87 46)" fill="#009688" fill-opacity="0.47"/>
<circle cx="87" cy="32" r="3" transform="rotate(-90 87 32)" fill="#0A0731" fill-opacity="0.39"/>
<circle cx="87" cy="18" r="3" transform="rotate(-90 87 18)" fill="#009688" fill-opacity="0.47"/>
<circle cx="87" cy="4" r="3" transform="rotate(-90 87 4)" fill="#0A0731" fill-opacity="0.39"/>
<circle cx="101" cy="3.5603" r="3" transform="rotate(90 101 3.5603)" fill="#009688" fill-opacity="0.47"/>
<circle cx="101" cy="17.5603" r="3" transform="rotate(90 101 17.5603)" fill="#0A0731" fill-opacity="0.39"/>
<circle cx="101" cy="31.5603" r="3" transform="rotate(90 101 31.5603)" fill="#009688" fill-opacity="0.47"/>
<circle cx="101" cy="45.5603" r="3" transform="rotate(90 101 45.5603)" fill="#0A0731" fill-opacity="0.39"/>
<circle cx="101" cy="59.5603" r="3" transform="rotate(90 101 59.5603)" fill="#009688" fill-opacity="0.47"/>
<circle cx="101" cy="73.5603" r="3" transform="rotate(90 101 73.5603)" fill="#0A0731" fill-opacity="0.39"/>
<circle cx="115" cy="74" r="3" transform="rotate(-90 115 74)" fill="#009688" fill-opacity="0.47"/>
<circle cx="115" cy="60" r="3" transform="rotate(-90 115 60)" fill="#0A0731" fill-opacity="0.39"/>
<circle cx="115" cy="46" r="3" transform="rotate(-90 115 46)" fill="#009688" fill-opacity="0.47"/>
<circle cx="115" cy="32" r="3" transform="rotate(-90 115 32)" fill="#0A0731" fill-opacity="0.39"/>
<circle cx="115" cy="18" r="3" transform="rotate(-90 115 18)" fill="#009688" fill-opacity="0.47"/>
<circle cx="115" cy="4" r="3" transform="rotate(-90 115 4)" fill="#0A0731" fill-opacity="0.39"/>
<circle cx="129" cy="3.5603" r="3" transform="rotate(90 129 3.5603)" fill="#009688" fill-opacity="0.47"/>
<circle cx="129" cy="17.5603" r="3" transform="rotate(90 129 17.5603)" fill="#0A0731" fill-opacity="0.39"/>
<circle cx="129" cy="31.5603" r="3" transform="rotate(90 129 31.5603)" fill="#009688" fill-opacity="0.47"/>
<circle cx="129" cy="45.5603" r="3" transform="rotate(90 129 45.5603)" fill="#0A0731" fill-opacity="0.39"/>
<circle cx="129" cy="59.5603" r="3" transform="rotate(90 129 59.5603)" fill="#009688" fill-opacity="0.47"/>
<circle cx="129" cy="73.5603" r="3" transform="rotate(90 129 73.5603)" fill="#0A0731" fill-opacity="0.39"/>
<circle cx="143" cy="74" r="3" transform="rotate(-90 143 74)" fill="#009688" fill-opacity="0.47"/>
<circle cx="143" cy="60" r="3" transform="rotate(-90 143 60)" fill="#0A0731" fill-opacity="0.39"/>
<circle cx="143" cy="46" r="3" transform="rotate(-90 143 46)" fill="#009688" fill-opacity="0.47"/>
<circle cx="143" cy="32" r="3" transform="rotate(-90 143 32)" fill="#0A0731" fill-opacity="0.39"/>
<circle cx="143" cy="18" r="3" transform="rotate(-90 143 18)" fill="#009688" fill-opacity="0.47"/>
<circle cx="143" cy="4" r="3" transform="rotate(-90 143 4)" fill="#0A0731" fill-opacity="0.39"/>
<circle cx="157" cy="3.5603" r="3" transform="rotate(90 157 3.5603)" fill="#009688" fill-opacity="0.47"/>
<circle cx="157" cy="17.5603" r="3" transform="rotate(90 157 17.5603)" fill="#0A0731" fill-opacity="0.39"/>
<circle cx="157" cy="31.5603" r="3" transform="rotate(90 157 31.5603)" fill="#009688" fill-opacity="0.47"/>
<circle cx="157" cy="45.5603" r="3" transform="rotate(90 157 45.5603)" fill="#0A0731" fill-opacity="0.39"/>
<circle cx="157" cy="59.5603" r="3" transform="rotate(90 157 59.5603)" fill="#009688" fill-opacity="0.47"/>
<circle cx="157" cy="73.5603" r="3" transform="rotate(90 157 73.5603)" fill="#0A0731" fill-opacity="0.39"/>
<circle cx="171" cy="74" r="3" transform="rotate(-90 171 74)" fill="#009688" fill-opacity="0.47"/>
<circle cx="171" cy="60" r="3" transform="rotate(-90 171 60)" fill="#0A0731" fill-opacity="0.39"/>
<circle cx="171" cy="46" r="3" transform="rotate(-90 171 46)" fill="#009688" fill-opacity="0.47"/>
<circle cx="171" cy="32" r="3" transform="rotate(-90 171 32)" fill="#0A0731" fill-opacity="0.39"/>
<circle cx="171" cy="18" r="3" transform="rotate(-90 171 18)" fill="#009688" fill-opacity="0.47"/>
<circle cx="171" cy="4" r="3" transform="rotate(-90 171 4)" fill="#0A0731" fill-opacity="0.39"/>
<circle cx="185" cy="3.5603" r="3" transform="rotate(90 185 3.5603)" fill="#009688" fill-opacity="0.47"/>
<circle cx="185" cy="17.5603" r="3" transform="rotate(90 185 17.5603)" fill="#0A0731" fill-opacity="0.39"/>
<circle cx="185" cy="31.5603" r="3" transform="rotate(90 185 31.5603)" fill="#009688" fill-opacity="0.47"/>
<circle cx="185" cy="45.5603" r="3" transform="rotate(90 185 45.5603)" fill="#0A0731" fill-opacity="0.39"/>
<circle cx="185" cy="59.5603" r="3" transform="rotate(90 185 59.5603)" fill="#009688" fill-opacity="0.47"/>
<circle cx="185" cy="73.5603" r="3" transform="rotate(90 185 73.5603)" fill="#0A0731" fill-opacity="0.39"/>
<circle cx="199" cy="74" r="3" transform="rotate(-90 199 74)" fill="#009688" fill-opacity="0.47"/>
<circle cx="199" cy="60" r="3" transform="rotate(-90 199 60)" fill="#0A0731" fill-opacity="0.39"/>
<circle cx="199" cy="46" r="3" transform="rotate(-90 199 46)" fill="#009688" fill-opacity="0.47"/>
<circle cx="199" cy="32" r="3" transform="rotate(-90 199 32)" fill="#0A0731" fill-opacity="0.39"/>
<circle cx="199" cy="18" r="3" transform="rotate(-90 199 18)" fill="#009688" fill-opacity="0.47"/>
<circle cx="199" cy="4" r="3" transform="rotate(-90 199 4)" fill="#0A0731" fill-opacity="0.39"/>
<circle cx="213" cy="3.5603" r="3" transform="rotate(90 213 3.5603)" fill="#009688" fill-opacity="0.47"/>
<circle cx="213" cy="17.5603" r="3" transform="rotate(90 213 17.5603)" fill="#0A0731" fill-opacity="0.39"/>
<circle cx="213" cy="31.5603" r="3" transform="rotate(90 213 31.5603)" fill="#009688" fill-opacity="0.47"/>
<circle cx="213" cy="45.5603" r="3" transform="rotate(90 213 45.5603)" fill="#0A0731" fill-opacity="0.39"/>
<circle cx="213" cy="59.5603" r="3" transform="rotate(90 213 59.5603)" fill="#009688" fill-opacity="0.47"/>
<circle cx="213" cy="73.5603" r="3" transform="rotate(90 213 73.5603)" fill="#0A0731" fill-opacity="0.39"/>
<circle cx="227" cy="74" r="3" transform="rotate(-90 227 74)" fill="#009688" fill-opacity="0.47"/>
<circle cx="227" cy="60" r="3" transform="rotate(-90 227 60)" fill="#0A0731" fill-opacity="0.39"/>
<circle cx="227" cy="46" r="3" transform="rotate(-90 227 46)" fill="#009688" fill-opacity="0.47"/>
<circle cx="227" cy="32" r="3" transform="rotate(-90 227 32)" fill="#0A0731" fill-opacity="0.39"/>
<circle cx="227" cy="18" r="3" transform="rotate(-90 227 18)" fill="#009688" fill-opacity="0.47"/>
<circle cx="227" cy="4" r="3" transform="rotate(-90 227 4)" fill="#0A0731" fill-opacity="0.39"/>
<circle cx="241" cy="3.5603" r="3" transform="rotate(90 241 3.5603)" fill="#009688" fill-opacity="0.47"/>
<circle cx="241" cy="17.5603" r="3" transform="rotate(90 241 17.5603)" fill="#0A0731" fill-opacity="0.39"/>
<circle cx="241" cy="31.5603" r="3" transform="rotate(90 241 31.5603)" fill="#009688" fill-opacity="0.47"/>
<circle cx="241" cy="45.5603" r="3" transform="rotate(90 241 45.5603)" fill="#0A0731" fill-opacity="0.39"/>
<circle cx="241" cy="59.5603" r="3" transform="rotate(90 241 59.5603)" fill="#009688" fill-opacity="0.47"/>
<circle cx="241" cy="73.5603" r="3" transform="rotate(90 241 73.5603)" fill="#0A0731" fill-opacity="0.39"/>
<circle cx="255" cy="74" r="3" transform="rotate(-90 255 74)" fill="#009688" fill-opacity="0.47"/>
<circle cx="255" cy="60" r="3" transform="rotate(-90 255 60)" fill="#0A0731" fill-opacity="0.39"/>
<circle cx="255" cy="46" r="3" transform="rotate(-90 255 46)" fill="#009688" fill-opacity="0.47"/>
<circle cx="255" cy="32" r="3" transform="rotate(-90 255 32)" fill="#0A0731" fill-opacity="0.39"/>
<circle cx="255" cy="18" r="3" transform="rotate(-90 255 18)" fill="#009688" fill-opacity="0.47"/>
<circle cx="255" cy="4" r="3" transform="rotate(-90 255 4)" fill="#0A0731" fill-opacity="0.39"/>
<circle cx="269" cy="3.5603" r="3" transform="rotate(90 269 3.5603)" fill="#009688" fill-opacity="0.47"/>
<circle cx="269" cy="17.5603" r="3" transform="rotate(90 269 17.5603)" fill="#0A0731" fill-opacity="0.39"/>
<circle cx="269" cy="31.5603" r="3" transform="rotate(90 269 31.5603)" fill="#009688" fill-opacity="0.47"/>
<circle cx="269" cy="45.5603" r="3" transform="rotate(90 269 45.5603)" fill="#0A0731" fill-opacity="0.39"/>
<circle cx="269" cy="59.5603" r="3" transform="rotate(90 269 59.5603)" fill="#009688" fill-opacity="0.47"/>
<circle cx="269" cy="73.5603" r="3" transform="rotate(90 269 73.5603)" fill="#0A0731" fill-opacity="0.39"/>
<circle cx="283" cy="74" r="3" transform="rotate(-90 283 74)" fill="#009688" fill-opacity="0.47"/>
<circle cx="283" cy="60" r="3" transform="rotate(-90 283 60)" fill="#0A0731" fill-opacity="0.39"/>
<circle cx="283" cy="46" r="3" transform="rotate(-90 283 46)" fill="#009688" fill-opacity="0.47"/>
<circle cx="283" cy="32" r="3" transform="rotate(-90 283 32)" fill="#0A0731" fill-opacity="0.39"/>
<circle cx="283" cy="18" r="3" transform="rotate(-90 283 18)" fill="#009688" fill-opacity="0.47"/>
<circle cx="283" cy="4" r="3" transform="rotate(-90 283 4)" fill="#0A0731" fill-opacity="0.39"/>
<circle cx="297" cy="3.5603" r="3" transform="rotate(90 297 3.5603)" fill="#009688" fill-opacity="0.47"/>
<circle cx="297" cy="17.5603" r="3" transform="rotate(90 297 17.5603)" fill="#0A0731" fill-opacity="0.39"/>
<circle cx="297" cy="31.5603" r="3" transform="rotate(90 297 31.5603)" fill="#009688" fill-opacity="0.47"/>
<circle cx="297" cy="45.5603" r="3" transform="rotate(90 297 45.5603)" fill="#0A0731" fill-opacity="0.39"/>
<circle cx="297" cy="59.5603" r="3" transform="rotate(90 297 59.5603)" fill="#009688" fill-opacity="0.47"/>
<circle cx="297" cy="73.5603" r="3" transform="rotate(90 297 73.5603)" fill="#0A0731" fill-opacity="0.39"/>
<circle cx="311" cy="74" r="3" transform="rotate(-90 311 74)" fill="#009688" fill-opacity="0.47"/>
<circle cx="311" cy="60" r="3" transform="rotate(-90 311 60)" fill="#0A0731" fill-opacity="0.39"/>
<circle cx="311" cy="46" r="3" transform="rotate(-90 311 46)" fill="#009688" fill-opacity="0.47"/>
<circle cx="311" cy="32" r="3" transform="rotate(-90 311 32)" fill="#0A0731" fill-opacity="0.39"/>
<circle cx="311" cy="18" r="3" transform="rotate(-90 311 18)" fill="#009688" fill-opacity="0.47"/>
<circle cx="311" cy="4" r="3" transform="rotate(-90 311 4)" fill="#0A0731" fill-opacity="0.39"/>
<circle cx="325" cy="3.5603" r="3" transform="rotate(90 325 3.5603)" fill="#009688" fill-opacity="0.47"/>
<circle cx="325" cy="17.5603" r="3" transform="rotate(90 325 17.5603)" fill="#0A0731" fill-opacity="0.39"/>
<circle cx="325" cy="31.5603" r="3" transform="rotate(90 325 31.5603)" fill="#009688" fill-opacity="0.47"/>
<circle cx="325" cy="45.5603" r="3" transform="rotate(90 325 45.5603)" fill="#0A0731" fill-opacity="0.39"/>
<circle cx="325" cy="59.5603" r="3" transform="rotate(90 325 59.5603)" fill="#009688" fill-opacity="0.47"/>
<circle cx="325" cy="73.5603" r="3" transform="rotate(90 325 73.5603)" fill="#0A0731" fill-opacity="0.39"/>
<circle cx="339" cy="74" r="3" transform="rotate(-90 339 74)" fill="#009688" fill-opacity="0.47"/>
<circle cx="339" cy="60" r="3" transform="rotate(-90 339 60)" fill="#0A0731" fill-opacity="0.39"/>
<circle cx="339" cy="46" r="3" transform="rotate(-90 339 46)" fill="#009688" fill-opacity="0.47"/>
<circle cx="339" cy="32" r="3" transform="rotate(-90 339 32)" fill="#0A0731" fill-opacity="0.39"/>
<circle cx="339" cy="18" r="3" transform="rotate(-90 339 18)" fill="#009688" fill-opacity="0.47"/>
<circle cx="339" cy="4" r="3" transform="rotate(-90 339 4)" fill="#0A0731" fill-opacity="0.39"/>
<circle cx="353" cy="3.5603" r="3" transform="rotate(90 353 3.5603)" fill="#009688" fill-opacity="0.47"/>
<circle cx="353" cy="17.5603" r="3" transform="rotate(90 353 17.5603)" fill="#0A0731" fill-opacity="0.39"/>
<circle cx="353" cy="31.5603" r="3" transform="rotate(90 353 31.5603)" fill="#009688" fill-opacity="0.47"/>
<circle cx="353" cy="45.5603" r="3" transform="rotate(90 353 45.5603)" fill="#0A0731" fill-opacity="0.39"/>
<circle cx="353" cy="59.5603" r="3" transform="rotate(90 353 59.5603)" fill="#009688" fill-opacity="0.47"/>
<circle cx="353" cy="73.5603" r="3" transform="rotate(90 353 73.5603)" fill="#0A0731" fill-opacity="0.39"/>
<circle cx="367" cy="74" r="3" transform="rotate(-90 367 74)" fill="#009688" fill-opacity="0.47"/>
<circle cx="367" cy="60" r="3" transform="rotate(-90 367 60)" fill="#0A0731" fill-opacity="0.39"/>
<circle cx="367" cy="46" r="3" transform="rotate(-90 367 46)" fill="#009688" fill-opacity="0.47"/>
<circle cx="367" cy="32" r="3" transform="rotate(-90 367 32)" fill="#0A0731" fill-opacity="0.39"/>
<circle cx="367" cy="18" r="3" transform="rotate(-90 367 18)" fill="#009688" fill-opacity="0.47"/>
<circle cx="367" cy="4" r="3" transform="rotate(-90 367 4)" fill="#0A0731" fill-opacity="0.39"/>
<circle cx="381" cy="3.5603" r="3" transform="rotate(90 381 3.5603)" fill="#009688" fill-opacity="0.47"/>
<circle cx="381" cy="17.5603" r="3" transform="rotate(90 381 17.5603)" fill="#0A0731" fill-opacity="0.39"/>
<circle cx="381" cy="31.5603" r="3" transform="rotate(90 381 31.5603)" fill="#009688" fill-opacity="0.47"/>
<circle cx="381" cy="45.5603" r="3" transform="rotate(90 381 45.5603)" fill="#0A0731" fill-opacity="0.39"/>
<circle cx="381" cy="59.5603" r="3" transform="rotate(90 381 59.5603)" fill="#009688" fill-opacity="0.47"/>
<circle cx="381" cy="73.5603" r="3" transform="rotate(90 381 73.5603)" fill="#0A0731" fill-opacity="0.39"/>
</svg>
