<svg width="42" height="43" viewBox="0 0 42 43" fill="none" xmlns="http://www.w3.org/2000/svg">
<path d="M20.9987 26.1668C22.2364 26.1668 23.4234 25.6752 24.2985 24.8C25.1737 23.9248 25.6654 22.7378 25.6654 21.5002C25.6654 20.2625 25.1737 19.0755 24.2985 18.2003C23.4234 17.3252 22.2364 16.8335 20.9987 16.8335C19.761 16.8335 18.574 17.3252 17.6989 18.2003C16.8237 19.0755 16.332 20.2625 16.332 21.5002C16.332 22.7378 16.8237 23.9248 17.6989 24.8C18.574 25.6752 19.761 26.1668 20.9987 26.1668Z" stroke="#009688" stroke-width="1.5" stroke-linecap="round" stroke-linejoin="round"/>
<path d="M10.5 26.1667V16.8333C10.5 15.2862 11.1146 13.8025 12.2085 12.7085C13.3025 11.6146 14.7862 11 16.3333 11H25.6667C27.2138 11 28.6975 11.6146 29.7915 12.7085C30.8854 13.8025 31.5 15.2862 31.5 16.8333V26.1667C31.5 27.7138 30.8854 29.1975 29.7915 30.2915C28.6975 31.3854 27.2138 32 25.6667 32H16.3333C14.7862 32 13.3025 31.3854 12.2085 30.2915C11.1146 29.1975 10.5 27.7138 10.5 26.1667Z" stroke="#009688" stroke-width="1.5"/>
<path d="M27.418 15.0949L27.4296 15.082" stroke="#009688" stroke-width="1.5" stroke-linecap="round" stroke-linejoin="round"/>
<circle cx="21" cy="21.5" r="20.5" stroke="#009688"/>
</svg>
