<svg width="42" height="43" viewBox="0 0 42 43" fill="none" xmlns="http://www.w3.org/2000/svg">
<path d="M21.0003 20.3337L16.3337 32.0004M18.6367 26.8344C19.906 27.3972 21.3344 27.4888 22.6652 27.0928C23.996 26.6967 25.1419 25.839 25.8969 24.6737C26.6519 23.5084 26.9665 22.112 26.7841 20.7356C26.6017 19.3591 25.9344 18.0929 24.9019 17.1644C23.8695 16.236 22.5398 15.7062 21.1518 15.6704C19.7637 15.6346 18.4085 16.0951 17.3295 16.969C16.2506 17.843 15.5188 19.0732 15.2657 20.4384C15.0126 21.8036 15.2548 23.2144 15.9487 24.417" stroke="#009688" stroke-width="1.5" stroke-linecap="round" stroke-linejoin="round"/>
<path d="M20.9987 33.1668C27.442 33.1668 32.6654 27.9435 32.6654 21.5002C32.6654 15.0568 27.442 9.8335 20.9987 9.8335C14.5554 9.8335 9.33203 15.0568 9.33203 21.5002C9.33203 27.9435 14.5554 33.1668 20.9987 33.1668Z" stroke="#009688" stroke-width="1.5" stroke-linecap="round" stroke-linejoin="round"/>
<circle cx="21" cy="21.5" r="20.5" stroke="#009688"/>
</svg>
