<svg width="42" height="43" viewBox="0 0 42 43" fill="none" xmlns="http://www.w3.org/2000/svg">
<path d="M22.168 18.0002H27.418L26.8346 20.3335H22.168V30.8335H19.8346V20.3335H15.168V18.0002H19.8346V15.8162C19.8346 13.736 20.0516 12.9812 20.4576 12.2205C20.8558 11.4692 21.4703 10.8546 22.2216 10.4565C22.9823 10.0505 23.7371 9.8335 25.8173 9.8335C26.4271 9.8335 26.9606 9.89183 27.418 10.0085V12.1668H25.8173C24.2726 12.1668 23.8025 12.2578 23.3218 12.5145C22.9768 12.6948 22.6954 12.9766 22.5156 13.3218C22.259 13.8013 22.168 14.2715 22.168 15.8162V18.0002Z" fill="#009688"/>
<circle cx="21" cy="21.5" r="20.5" stroke="#009688"/>
</svg>
