<svg width="42" height="43" viewBox="0 0 42 43" fill="none" xmlns="http://www.w3.org/2000/svg">
<path d="M21.0026 18.6418C22.0724 17.5487 23.4654 16.8335 25.0859 16.8335C26.7877 16.8335 28.4198 17.5095 29.6232 18.7129C30.8266 19.9163 31.5026 21.5484 31.5026 23.2502V32.0002H29.1693V23.2502C29.1693 22.1672 28.7391 21.1286 27.9733 20.3628C27.2075 19.597 26.1689 19.1668 25.0859 19.1668C24.003 19.1668 22.9644 19.597 22.1986 20.3628C21.4328 21.1286 21.0026 22.1672 21.0026 23.2502V32.0002H18.6693V17.4168H21.0026V18.6418ZM12.8359 15.0835C12.3718 15.0835 11.9267 14.8991 11.5985 14.5709C11.2703 14.2427 11.0859 13.7976 11.0859 13.3335C11.0859 12.8694 11.2703 12.4242 11.5985 12.0961C11.9267 11.7679 12.3718 11.5835 12.8359 11.5835C13.3001 11.5835 13.7452 11.7679 14.0734 12.0961C14.4016 12.4242 14.5859 12.8694 14.5859 13.3335C14.5859 13.7976 14.4016 14.2427 14.0734 14.5709C13.7452 14.8991 13.3001 15.0835 12.8359 15.0835ZM11.6693 17.4168H14.0026V32.0002H11.6693V17.4168Z" fill="#009688"/>
<circle cx="21" cy="21.5" r="20.5" stroke="#009688"/>
</svg>
