<svg width="65" height="54" viewBox="0 0 65 54" fill="none" xmlns="http://www.w3.org/2000/svg">
<path d="M27.2 0.599992C27.8667 2.59999 28.2 4.26666 28.2 5.6C28.2 6.8 28 8.4 27.6 10.4C18.6667 10.4 14.2 15 14.2 24.2C14.2 27.5333 15.9333 29.4 19.4 29.8C24.4667 30.2 27 33.4667 27 39.6C27 44.2667 25.8667 47.8667 23.6 50.4C21.4667 52.8 17.5333 54 11.8 54C3.93333 54 4.76837e-07 48.6667 4.76837e-07 38C4.76837e-07 27.3333 2.13333 18.4667 6.4 11.4C10.6667 4.19999 17.6 0.599992 27.2 0.599992ZM63.4 0.599992C64.0667 2.59999 64.4 4.26666 64.4 5.6C64.4 6.8 64.2 8.4 63.8 10.4C54.8667 10.4 50.4 15 50.4 24.2C50.4 27.5333 52.1333 29.4 55.6 29.8C60.6667 30.2 63.2 33.4667 63.2 39.6C63.2 44.2667 62.0667 47.8667 59.8 50.4C57.6667 52.8 53.7333 54 48 54C40.1333 54 36.2 48.6667 36.2 38C36.2 27.3333 38.3333 18.4667 42.6 11.4C46.8667 4.19999 53.8 0.599992 63.4 0.599992Z" fill="#0D6A61"/>
</svg>
